Atma-Light.ufo
<glyph name="one" format="1">
  <advance width="491"/>
  <unicode hex="0031"/>
  <outline>
    <contour>
      <point x="309" y="637"/>
      <point x="272" y="626"/>
      <point x="243" y="611" type="curve"/>
      <point x="215" y="488"/>
      <point x="168" y="230"/>
      <point x="168" y="50" type="curve" smooth="yes"/>
      <point x="168" y="17"/>
      <point x="168" y="-15"/>
      <point x="171" y="-41" type="curve"/>
      <point x="188" y="-46"/>
      <point x="203" y="-48"/>
      <point x="231" y="-48" type="curve" smooth="yes"/>
      <point x="279" y="-48"/>
      <point x="314" y="-40"/>
      <point x="338" y="-29" type="curve"/>
      <point x="362" y="260"/>
      <point x="424" y="526"/>
      <point x="462" y="625" type="curve"/>
      <point x="433" y="632"/>
      <point x="399" y="637"/>
      <point x="372" y="637" type="curve" smooth="yes"/>
    </contour>
    <contour>
      <point x="343" y="701" type="curve"/>
      <point x="245" y="628"/>
      <point x="133" y="563"/>
      <point x="9" y="508" type="curve"/>
      <point x="34" y="446"/>
      <point x="71" y="397"/>
      <point x="118" y="361" type="curve"/>
      <point x="242" y="438"/>
      <point x="356" y="526"/>
      <point x="462" y="625" type="curve"/>
      <point x="432" y="658"/>
      <point x="393" y="684"/>
    </contour>
  </outline>
</glyph>
<glyph name="six" format="1">
  <advance width="618"/>
  <unicode hex="0036"/>
  <outline>
    <contour>
      <point x="357" y="557" type="curve" smooth="yes"/>
      <point x="283" y="557"/>
      <point x="237" y="462"/>
      <point x="237" y="302" type="curve" smooth="yes"/>
      <point x="237" y="176"/>
      <point x="270" y="80"/>
      <point x="327" y="80" type="curve" smooth="yes"/>
      <point x="369" y="80"/>
      <point x="381" y="130"/>
      <point x="381" y="164" type="curve" smooth="yes"/>
      <point x="381" y="232"/>
      <point x="347" y="270"/>
      <point x="310" y="270" type="curve" smooth="yes"/>
      <point x="281" y="270"/>
      <point x="251" y="242"/>
      <point x="239" y="186" type="curve"/>
      <point x="195" y="286" type="line"/>
      <point x="240" y="359"/>
      <point x="307" y="398"/>
      <point x="389" y="398" type="curve" smooth="yes"/>
      <point x="501" y="398"/>
      <point x="590" y="331"/>
      <point x="590" y="210" type="curve" smooth="yes"/>
      <point x="590" y="122"/>
      <point x="520" y="-50"/>
      <point x="306" y="-50" type="curve" smooth="yes"/>
      <point x="100" y="-50"/>
      <point x="32" y="119"/>
      <point x="32" y="293" type="curve" smooth="yes"/>
      <point x="32" y="520"/>
      <point x="163" y="691"/>
      <point x="363" y="691" type="curve" smooth="yes"/>
      <point x="496" y="691"/>
      <point x="571" y="621"/>
      <point x="590" y="527" type="curve"/>
      <point x="542" y="495"/>
      <point x="493" y="478"/>
      <point x="420" y="473" type="curve"/>
      <point x="411" y="530"/>
      <point x="393" y="557"/>
    </contour>
  </outline>
</glyph>
<glyph name="C" format="1">
  <advance width="638"/>
  <unicode hex="0043"/>
  <outline>
    <contour>
      <point x="514" y="219" type="curve"/>
      <point x="474" y="129"/>
      <point x="428" y="85"/>
      <point x="363" y="85" type="curve" smooth="yes"/>
      <point x="272" y="85"/>
      <point x="240" y="202"/>
      <point x="240" y="281" type="curve" smooth="yes"/>
      <point x="240" y="448"/>
      <point x="288" y="573"/>
      <point x="355" y="573" type="curve" smooth="yes"/>
      <point x="396" y="573"/>
      <point x="436" y="543"/>
      <point x="436" y="438" type="curve"/>
      <point x="530" y="438"/>
      <point x="566" y="450"/>
      <point x="623" y="475" type="curve"/>
      <point x="611" y="614"/>
      <point x="524" y="693"/>
      <point x="392" y="693" type="curve" smooth="yes"/>
      <point x="176" y="693"/>
      <point x="35" y="490"/>
      <point x="35" y="261" type="curve" smooth="yes"/>
      <point x="35" y="51"/>
      <point x="155" y="-35"/>
      <point x="314" y="-35" type="curve" smooth="yes"/>
      <point x="438" y="-35"/>
      <point x="542" y="16"/>
      <point x="614" y="135" type="curve"/>
      <point x="594" y="174"/>
      <point x="560" y="200"/>
    </contour>
  </outline>
</glyph>
<glyph name="H" format="1">
  <advance width="567"/>
  <unicode hex="0048"/>
  <outline>
    <contour>
      <point x="60" y="494"/>
      <point x="62" y="197"/>
      <point x="78" y="8" type="curve"/>
      <point x="89" y="8"/>
      <point x="103" y="10"/>
      <point x="112" y="13" type="curve"/>
      <point x="112" y="184"/>
      <point x="108" y="554"/>
      <point x="122" y="710" type="curve"/>
      <point x="111" y="713"/>
      <point x="103" y="714"/>
      <point x="93" y="714" type="curve" smooth="yes"/>
      <point x="79" y="714"/>
      <point x="69" y="712"/>
      <point x="60" y="710" type="curve"/>
    </contour>
    <contour>
      <point x="497" y="153"/>
      <point x="488" y="494"/>
      <point x="476" y="738" type="curve"/>
      <point x="470" y="741"/>
      <point x="462" y="742"/>
      <point x="456" y="742" type="curve" smooth="yes"/>
      <point x="444" y="742"/>
      <point x="435" y="740"/>
      <point x="422" y="736" type="curve"/>
      <point x="438" y="561"/>
      <point x="446" y="144"/>
      <point x="446" y="-47" type="curve"/>
      <point x="457" y="-50"/>
      <point x="480" y="-55"/>
      <point x="497" y="-55" type="curve"/>
    </contour>
    <contour>
      <point x="453" y="398" type="line"/>
      <point x="326" y="398"/>
      <point x="212" y="391"/>
      <point x="94" y="368" type="curve"/>
      <point x="96" y="332" type="line"/>
      <point x="215" y="351"/>
      <point x="339" y="354"/>
      <point x="459" y="354" type="curve"/>
    </contour>
  </outline>
</glyph>
<glyph name="I" format="1">
  <advance width="316"/>
  <unicode hex="0049"/>
  <outline>
    <contour>
      <point x="83" y="-32" type="curve"/>
      <point x="140" y="-32"/>
      <point x="221" y="-22"/>
      <point x="254" y="-12" type="curve"/>
      <point x="268" y="136"/>
      <point x="276" y="355"/>
      <point x="276" y="526" type="curve" smooth="yes"/>
      <point x="276" y="583"/>
      <point x="275" y="635"/>
      <point x="273" y="677" type="curve"/>
      <point x="240" y="686"/>
      <point x="210" y="689"/>
      <point x="176" y="689" type="curve" smooth="yes"/>
      <point x="121" y="689"/>
      <point x="74" y="673"/>
      <point x="47" y="655" type="curve"/>
      <point x="76" y="436"/>
      <point x="83" y="183"/>
    </contour>
  </outline>
</glyph>
<glyph name="P" format="1">
  <advance width="627"/>
  <unicode hex="0050"/>
  <outline>
    <contour>
      <point x="72" y="684" type="curve"/>
      <point x="70" y="635"/>
      <point x="70" y="586"/>
      <point x="70" y="538" type="curve" smooth="yes"/>
      <point x="70" y="340"/>
      <point x="80" y="142"/>
      <point x="103" y="-55" type="curve"/>
      <point x="153" y="-64"/>
      <point x="219" y="-68"/>
      <point x="270" y="-68" type="curve"/>
      <point x="266" y="27"/>
      <point x="261" y="123"/>
      <point x="261" y="221" type="curve" smooth="yes"/>
      <point x="261" y="376"/>
      <point x="268" y="529"/>
      <point x="283" y="675" type="curve"/>
      <point x="250" y="684"/>
      <point x="224" y="690"/>
      <point x="182" y="690" type="curve" smooth="yes"/>
      <point x="152" y="690"/>
      <point x="103" y="689"/>
    </contour>
    <contour>
      <point x="121" y="561" type="curve"/>
      <point x="163" y="588"/>
      <point x="232" y="629"/>
      <point x="300" y="629" type="curve" smooth="yes"/>
      <point x="376" y="629"/>
      <point x="409" y="564"/>
      <point x="409" y="499" type="curve" smooth="yes"/>
      <point x="409" y="408"/>
      <point x="336" y="347"/>
      <point x="231" y="332" type="curve"/>
      <point x="250" y="216" type="line"/>
      <point x="424" y="253"/>
      <point x="604" y="388"/>
      <point x="604" y="547" type="curve" smooth="yes"/>
      <point x="604" y="646"/>
      <point x="520" y="742"/>
      <point x="344" y="742" type="curve" smooth="yes"/>
      <point x="248" y="742"/>
      <point x="138" y="729"/>
      <point x="72" y="684" type="curve"/>
      <point x="78" y="643"/>
      <point x="95" y="602"/>
    </contour>
  </outline>
</glyph>
<glyph name="h" format="1">
  <advance width="422"/>
  <unicode hex="0068"/>
  <outline>
    <contour>
      <point x="382" y="323" type="curve" smooth="yes"/>
      <point x="382" y="470"/>
      <point x="341" y="523"/>
      <point x="253" y="523" type="curve" smooth="yes"/>
      <point x="182" y="523"/>
      <point x="115" y="449"/>
      <point x="79" y="352" type="curve"/>
      <point x="88" y="258" type="line"/>
      <point x="118" y="411"/>
      <point x="196" y="476"/>
      <point x="250" y="476" type="curve" smooth="yes"/>
      <point x="307" y="476"/>
      <point x="327" y="436"/>
      <point x="327" y="322" type="curve" smooth="yes"/>
      <point x="327" y="208"/>
      <point x="299" y="81"/>
      <point x="262" y="-15" type="curve"/>
      <point x="276" y="-24"/>
      <point x="292" y="-29"/>
      <point x="308" y="-32" type="curve"/>
      <point x="329" y="16"/>
      <point x="382" y="189"/>
    </contour>
    <contour>
      <point x="64" y="27" type="curve"/>
      <point x="80" y="27"/>
      <point x="98" y="29"/>
      <point x="111" y="33" type="curve"/>
      <point x="106" y="72"/>
      <point x="94" y="223"/>
      <point x="94" y="319" type="curve" smooth="yes"/>
      <point x="94" y="407"/>
      <point x="111" y="610"/>
      <point x="139" y="747" type="curve"/>
      <point x="126" y="750"/>
      <point x="118" y="755"/>
      <point x="105" y="755" type="curve" smooth="yes"/>
      <point x="91" y="755"/>
      <point x="80" y="750"/>
      <point x="68" y="744" type="curve"/>
      <point x="57" y="675"/>
      <point x="50" y="491"/>
      <point x="50" y="378" type="curve" smooth="yes"/>
      <point x="50" y="278"/>
      <point x="55" y="160"/>
    </contour>
  </outline>
</glyph>
<glyph name="bn_a" format="1">
  <advance width="612"/>
  <unicode hex="0985"/>
  <note>
	uni0985
  </note>
  <outline>
    <contour>
      <point x="381" y="97"/>
      <point x="429" y="178"/>
      <point x="429" y="281" type="curve" smooth="yes"/>
      <point x="429" y="388"/>
      <point x="376" y="498"/>
      <point x="290" y="498" type="curve" smooth="yes"/>
      <point x="236" y="498"/>
      <point x="201" y="448"/>
      <point x="201" y="383" type="curve" smooth="yes"/>
      <point x="201" y="359"/>
      <point x="207" y="334"/>
      <point x="216" y="316" type="curve"/>
      <point x="227" y="311"/>
      <point x="249" y="308"/>
      <point x="268" y="308" type="curve"/>
      <point x="254" y="327"/>
      <point x="247" y="356"/>
      <point x="247" y="380" type="curve" smooth="yes"/>
      <point x="247" y="429"/>
      <point x="264" y="458"/>
      <point x="298" y="458" type="curve" smooth="yes"/>
      <point x="351" y="458"/>
      <point x="384" y="388"/>
      <point x="384" y="291" type="curve" smooth="yes"/>
      <point x="384" y="206"/>
      <point x="356" y="149"/>
      <point x="290" y="149" type="curve" smooth="yes"/>
      <point x="184" y="149"/>
      <point x="111" y="293"/>
      <point x="57" y="465" type="curve"/>
      <point x="42" y="459"/>
      <point x="29" y="449"/>
      <point x="18" y="438" type="curve"/>
      <point x="72" y="269"/>
      <point x="158" y="97"/>
      <point x="290" y="97" type="curve" smooth="yes"/>
    </contour>
    <contour>
      <point x="469" y="8" type="line"/>
      <point x="445" y="66"/>
      <point x="412" y="120"/>
      <point x="372" y="165" type="curve"/>
      <point x="339" y="134" type="line"/>
      <point x="378" y="98"/>
      <point x="410" y="52"/>
      <point x="440" y="-6" type="curve"/>
    </contour>
    <contour>
      <point x="528" y="75"/>
      <point x="553" y="277"/>
      <point x="553" y="436" type="curve" smooth="yes"/>
      <point x="553" y="480"/>
      <point x="553" y="522"/>
      <point x="549" y="561" type="curve"/>
      <point x="499" y="564" type="line"/>
      <point x="501" y="518"/>
      <point x="502" y="481"/>
      <point x="502" y="433" type="curve" smooth="yes"/>
      <point x="502" y="263"/>
      <point x="489" y="122"/>
      <point x="455" y="20" type="curve"/>
      <point x="440" y="-6" type="line"/>
      <point x="451" y="-13"/>
      <point x="467" y="-18"/>
      <point x="483" y="-18" type="curve"/>
    </contour>
    <contour>
      <point x="85" y="552"/>
      <point x="184" y="567"/>
      <point x="303" y="567" type="curve" smooth="yes"/>
      <point x="418" y="567"/>
      <point x="529" y="552"/>
      <point x="612" y="535" type="curve"/>
      <point x="614" y="541"/>
      <point x="616" y="551"/>
      <point x="616" y="562" type="curve" smooth="yes"/>
      <point x="616" y="570"/>
      <point x="615" y="576"/>
      <point x="612" y="581" type="curve"/>
      <point x="538" y="600"/>
      <point x="423" y="616"/>
      <point x="306" y="616" type="curve" smooth="yes"/>
      <point x="185" y="616"/>
      <point x="83" y="600"/>
      <point x="0" y="581" type="curve"/>
      <point x="-3" y="576"/>
      <point x="-5" y="569"/>
      <point x="-5" y="561" type="curve" smooth="yes"/>
      <point x="-5" y="550"/>
      <point x="-3" y="541"/>
      <point x="0" y="535" type="curve"/>
    </contour>
  </outline>
</glyph>
<glyph name="bn_o" format="1">
  <advance width="645"/>
  <unicode hex="0993"/>
  <outline>
    <contour>
      <point x="535" y="-17"/>
      <point x="597" y="66"/>
      <point x="597" y="162" type="curve" smooth="yes"/>
      <point x="597" y="239"/>
      <point x="558" y="301"/>
      <point x="512" y="346" type="curve"/>
      <point x="486" y="311" type="line"/>
      <point x="529" y="275"/>
      <point x="550" y="229"/>
      <point x="550" y="172" type="curve" smooth="yes"/>
      <point x="550" y="88"/>
      <point x="505" y="37"/>
      <point x="420" y="37" type="curve" smooth="yes"/>
      <point x="266" y="37"/>
      <point x="150" y="203"/>
      <point x="63" y="569" type="curve"/>
      <point x="48" y="562"/>
      <point x="35" y="554"/>
      <point x="22" y="543" type="curve"/>
      <point x="83" y="287"/>
      <point x="191" y="-17"/>
      <point x="417" y="-17" type="curve" smooth="yes"/>
    </contour>
    <contour>
      <point x="464" y="220"/>
      <point x="505" y="251"/>
      <point x="534" y="298" type="curve"/>
      <point x="499" y="337" type="line"/>
      <point x="470" y="288"/>
      <point x="444" y="269"/>
      <point x="416" y="269" type="curve" smooth="yes"/>
      <point x="390" y="269"/>
      <point x="370" y="286"/>
      <point x="370" y="312" type="curve" smooth="yes"/>
      <point x="370" y="339"/>
      <point x="390" y="360"/>
      <point x="419" y="360" type="curve" smooth="yes"/>
      <point x="455" y="360"/>
      <point x="490" y="329"/>
      <point x="505" y="286" type="curve"/>
      <point x="526" y="329" type="line"/>
      <point x="508" y="372"/>
      <point x="463" y="402"/>
      <point x="419" y="402" type="curve" smooth="yes"/>
      <point x="366" y="402"/>
      <point x="332" y="359"/>
      <point x="332" y="310" type="curve" smooth="yes"/>
      <point x="332" y="256"/>
      <point x="371" y="220"/>
      <point x="419" y="220" type="curve" smooth="yes"/>
    </contour>
    <contour>
      <point x="567" y="344"/>
      <point x="591" y="407"/>
      <point x="591" y="465" type="curve" smooth="yes"/>
      <point x="591" y="566"/>
      <point x="517" y="627"/>
      <point x="418" y="627" type="curve" smooth="yes"/>
      <point x="305" y="627"/>
      <point x="218" y="546"/>
      <point x="220" y="412" type="curve"/>
      <point x="232" y="397"/>
      <point x="261" y="386"/>
      <point x="278" y="386" type="curve"/>
      <point x="276" y="394"/>
      <point x="273" y="412"/>
      <point x="273" y="431" type="curve" smooth="yes"/>
      <point x="273" y="517"/>
      <point x="338" y="585"/>
      <point x="432" y="585" type="curve" smooth="yes"/>
      <point x="502" y="585"/>
      <point x="544" y="547"/>
      <point x="544" y="475" type="curve" smooth="yes"/>
      <point x="544" y="422"/>
      <point x="521" y="370"/>
      <point x="490" y="331" type="curve"/>
      <point x="511" y="307" type="line"/>
      <point x="537" y="304" type="line"/>
    </contour>
  </outline>
</glyph>
<glyph name="bn_gha" format="1">
  <advance width="475"/>
  <unicode hex="0998"/>
  <outline>
    <contour>
      <point x="379" y="13" type="line"/>
      <point x="316" y="153"/>
      <point x="216" y="226"/>
      <point x="112" y="259" type="curve"/>
      <point x="115" y="230" type="line"/>
      <point x="272" y="352" type="line"/>
      <point x="273" y="371"/>
      <point x="268" y="390"/>
      <point x="257" y="405" type="curve"/>
      <point x="223" y="378"/>
      <point x="189" y="369"/>
      <point x="167" y="369" type="curve" smooth="yes"/>
      <point x="127" y="369"/>
      <point x="98" y="400"/>
      <point x="98" y="442" type="curve" smooth="yes"/>
      <point x="98" y="484"/>
      <point x="128" y="528"/>
      <point x="218" y="566" type="curve"/>
      <point x="146" y="583" type="line"/>
      <point x="80" y="540"/>
      <point x="49" y="500"/>
      <point x="49" y="443" type="curve" smooth="yes"/>
      <point x="49" y="374"/>
      <point x="97" y="336"/>
      <point x="163" y="332" type="curve" smooth="yes"/>
      <point x="212" y="329"/>
      <point x="240" y="348"/>
      <point x="250" y="355" type="curve"/>
      <point x="205" y="362" type="line"/>
      <point x="73" y="263" type="line"/>
      <point x="74" y="244"/>
      <point x="80" y="226"/>
      <point x="101" y="208" type="curve"/>
      <point x="206" y="185"/>
      <point x="293" y="116"/>
      <point x="364" y="-16" type="curve"/>
    </contour>
    <contour>
      <point x="383" y="-16"/>
      <point x="403" y="-14"/>
      <point x="416" y="-6" type="curve"/>
      <point x="394" y="76"/>
      <point x="392" y="210"/>
      <point x="392" y="285" type="curve" smooth="yes"/>
      <point x="392" y="403"/>
      <point x="397" y="468"/>
      <point x="414" y="562" type="curve"/>
      <point x="365" y="572" type="line"/>
      <point x="349" y="453"/>
      <point x="343" y="340"/>
      <point x="343" y="221" type="curve" smooth="yes"/>
      <point x="343" y="86"/>
      <point x="351" y="34"/>
      <point x="364" y="-16" type="curve"/>
    </contour>
    <contour>
      <point x="56" y="549"/>
      <point x="146" y="562"/>
      <point x="247" y="562" type="curve" smooth="yes"/>
      <point x="341" y="562"/>
      <point x="416" y="549"/>
      <point x="475" y="535" type="curve"/>
      <point x="477" y="541"/>
      <point x="479" y="552"/>
      <point x="479" y="562" type="curve" smooth="yes"/>
      <point x="479" y="569"/>
      <point x="478" y="576"/>
      <point x="475" y="581" type="curve"/>
      <point x="419" y="598"/>
      <point x="341" y="612"/>
      <point x="249" y="612" type="curve" smooth="yes"/>
      <point x="147" y="612"/>
      <point x="54" y="598"/>
      <point x="0" y="581" type="curve"/>
      <point x="-3" y="576"/>
      <point x="-5" y="568"/>
      <point x="-5" y="560" type="curve" smooth="yes"/>
      <point x="-5" y="551"/>
      <point x="-3" y="543"/>
      <point x="0" y="535" type="curve"/>
    </contour>
  </outline>
</glyph>
<glyph name="bn_ja" format="1">
  <advance width="839"/>
  <unicode hex="099C"/>
  <outline>
    <contour>
      <point x="511" y="-3"/>
      <point x="585" y="78"/>
      <point x="585" y="205" type="curve" smooth="yes"/>
      <point x="585" y="255"/>
      <point x="573" y="309"/>
      <point x="557" y="354" type="curve"/>
      <point x="548" y="364"/>
      <point x="536" y="375"/>
      <point x="525" y="381" type="curve"/>
      <point x="463" y="335"/>
      <point x="392" y="305"/>
      <point x="343" y="305" type="curve" smooth="yes"/>
      <point x="311" y="305"/>
      <point x="274" y="317"/>
      <point x="274" y="364" type="curve" smooth="yes"/>
      <point x="274" y="423"/>
      <point x="328" y="514"/>
      <point x="382" y="568" type="curve"/>
      <point x="338" y="584" type="line"/>
      <point x="280" y="531"/>
      <point x="223" y="437"/>
      <point x="223" y="372" type="curve" smooth="yes"/>
      <point x="223" y="299"/>
      <point x="290" y="256"/>
      <point x="355" y="256" type="curve" smooth="yes"/>
      <point x="421" y="256"/>
      <point x="494" y="296"/>
      <point x="549" y="338" type="curve"/>
      <point x="515" y="356" type="line"/>
      <point x="528" y="318"/>
      <point x="536" y="267"/>
      <point x="536" y="223" type="curve" smooth="yes"/>
      <point x="536" y="108"/>
      <point x="481" y="51"/>
      <point x="381" y="51" type="curve" smooth="yes"/>
      <point x="241" y="51"/>
      <point x="143" y="163"/>
      <point x="53" y="452" type="curve"/>
      <point x="38" y="446"/>
      <point x="23" y="439"/>
      <point x="11" y="430" type="curve"/>
      <point x="72" y="225"/>
      <point x="164" y="-3"/>
      <point x="382" y="-3" type="curve" smooth="yes"/>
    </contour>
    <contour>
      <point x="737" y="-60"/>
      <point x="761" y="-55"/>
      <point x="777" y="-48" type="curve"/>
      <point x="747" y="44"/>
      <point x="731" y="139"/>
      <point x="731" y="233" type="curve" smooth="yes"/>
      <point x="731" y="302"/>
      <point x="742" y="370"/>
      <point x="769" y="434" type="curve"/>
      <point x="763" y="453"/>
      <point x="751" y="471"/>
      <point x="735" y="482" type="curve"/>
      <point x="692" y="464"/>
      <point x="647" y="456"/>
      <point x="607" y="456" type="curve" smooth="yes"/>
      <point x="509" y="456"/>
      <point x="465" y="501"/>
      <point x="423" y="581" type="curve"/>
      <point x="373" y="579" type="line"/>
      <point x="412" y="491"/>
      <point x="480" y="406"/>
      <point x="611" y="406" type="curve" smooth="yes"/>
      <point x="640" y="406"/>
      <point x="684" y="411"/>
      <point x="725" y="426" type="curve"/>
      <point x="717" y="436" type="line"/>
      <point x="690" y="365"/>
      <point x="678" y="280"/>
      <point x="678" y="196" type="curve" smooth="yes"/>
      <point x="678" y="107"/>
      <point x="691" y="17"/>
      <point x="718" y="-60" type="curve"/>
    </contour>
    <contour>
      <point x="104" y="553"/>
      <point x="268" y="569"/>
      <point x="417" y="569" type="curve" smooth="yes"/>
      <point x="566" y="569"/>
      <point x="725" y="553"/>
      <point x="839" y="535" type="curve"/>
      <point x="841" y="541"/>
      <point x="843" y="551"/>
      <point x="843" y="561" type="curve" smooth="yes"/>
      <point x="843" y="568"/>
      <point x="842" y="576"/>
      <point x="839" y="581" type="curve"/>
      <point x="737" y="602"/>
      <point x="574" y="619"/>
      <point x="422" y="619" type="curve" smooth="yes"/>
      <point x="270" y="619"/>
      <point x="102" y="602"/>
      <point x="0" y="581" type="curve"/>
      <point x="-4" y="576"/>
      <point x="-6" y="569"/>
      <point x="-6" y="561" type="curve" smooth="yes"/>
      <point x="-6" y="552"/>
      <point x="-4" y="543"/>
      <point x="0" y="535" type="curve"/>
    </contour>
  </outline>
</glyph>
<glyph name="bn_nya" format="1">
  <advance width="797"/>
  <unicode hex="099E"/>
  <outline>
    <contour>
      <point x="415" y="-51"/>
      <point x="423" y="-50"/>
      <point x="430" y="-48" type="curve"/>
      <point x="465" y="65"/>
      <point x="545" y="388"/>
      <point x="545" y="465" type="curve" smooth="yes"/>
      <point x="545" y="542"/>
      <point x="492" y="596"/>
      <point x="427" y="596" type="curve" smooth="yes"/>
      <point x="327" y="596"/>
      <point x="182" y="488"/>
      <point x="182" y="374" type="curve" smooth="yes"/>
      <point x="182" y="313"/>
      <point x="228" y="272"/>
      <point x="295" y="272" type="curve" smooth="yes"/>
      <point x="319" y="272"/>
      <point x="345" y="278"/>
      <point x="366" y="292" type="curve"/>
      <point x="373" y="302"/>
      <point x="380" y="324"/>
      <point x="380" y="337" type="curve" smooth="yes"/>
      <point x="380" y="342"/>
      <point x="379" y="349"/>
      <point x="377" y="353" type="curve"/>
      <point x="360" y="339"/>
      <point x="334" y="321"/>
      <point x="301" y="321" type="curve" smooth="yes"/>
      <point x="265" y="321"/>
      <point x="238" y="339"/>
      <point x="238" y="375" type="curve" smooth="yes"/>
      <point x="238" y="462"/>
      <point x="359" y="552"/>
      <point x="436" y="552" type="curve" smooth="yes"/>
      <point x="474" y="552"/>
      <point x="501" y="528"/>
      <point x="501" y="481" type="curve" smooth="yes"/>
      <point x="501" y="411"/>
      <point x="420" y="83"/>
      <point x="384" y="-23" type="curve"/>
      <point x="402" y="-21" type="line"/>
      <point x="388" y="69"/>
      <point x="361" y="114"/>
      <point x="282" y="114" type="curve" smooth="yes"/>
      <point x="239" y="114"/>
      <point x="190" y="102"/>
      <point x="148" y="102" type="curve" smooth="yes"/>
      <point x="97" y="102"/>
      <point x="62" y="124"/>
      <point x="62" y="172" type="curve" smooth="yes"/>
      <point x="62" y="201"/>
      <point x="85" y="264"/>
      <point x="114" y="296" type="curve"/>
      <point x="106" y="306"/>
      <point x="95" y="314"/>
      <point x="78" y="319" type="curve"/>
      <point x="44" y="278"/>
      <point x="13" y="216"/>
      <point x="13" y="165" type="curve" smooth="yes"/>
      <point x="13" y="93"/>
      <point x="61" y="50"/>
      <point x="141" y="50" type="curve" smooth="yes"/>
      <point x="187" y="50"/>
      <point x="238" y="61"/>
      <point x="279" y="61" type="curve" smooth="yes"/>
      <point x="359" y="61"/>
      <point x="366" y="8"/>
      <point x="383" y="-48" type="curve"/>
      <point x="390" y="-50"/>
      <point x="399" y="-51"/>
      <point x="407" y="-51" type="curve" smooth="yes"/>
    </contour>
    <contour>
      <point x="716" y="39"/>
      <point x="757" y="88"/>
      <point x="757" y="151" type="curve" smooth="yes"/>
      <point x="757" y="185"/>
      <point x="745" y="216"/>
      <point x="723" y="248" type="curve"/>
      <point x="697" y="219" type="line"/>
      <point x="708" y="200"/>
      <point x="715" y="178"/>
      <point x="715" y="157" type="curve" smooth="yes"/>
      <point x="715" y="119"/>
      <point x="694" y="89"/>
      <point x="651" y="89" type="curve" smooth="yes"/>
      <point x="591" y="89"/>
      <point x="521" y="142"/>
      <point x="490" y="237" type="curve"/>
      <point x="470" y="205" type="line"/>
      <point x="484" y="130"/>
      <point x="561" y="39"/>
      <point x="654" y="39" type="curve" smooth="yes"/>
    </contour>
    <contour>
      <point x="668" y="162"/>
      <point x="706" y="190"/>
      <point x="734" y="230" type="curve"/>
      <point x="702" y="262" type="line"/>
      <point x="672" y="223"/>
      <point x="648" y="207"/>
      <point x="627" y="207" type="curve" smooth="yes"/>
      <point x="604" y="207"/>
      <point x="589" y="223"/>
      <point x="589" y="243" type="curve" smooth="yes"/>
      <point x="589" y="267"/>
      <point x="608" y="284"/>
      <point x="633" y="284" type="curve" smooth="yes"/>
      <point x="663" y="284"/>
      <point x="692" y="258"/>
      <point x="703" y="224" type="curve"/>
      <point x="721" y="261" type="line"/>
      <point x="706" y="296"/>
      <point x="670" y="321"/>
      <point x="631" y="321" type="curve" smooth="yes"/>
      <point x="586" y="321"/>
      <point x="555" y="285"/>
      <point x="555" y="240" type="curve" smooth="yes"/>
      <point x="555" y="196"/>
      <point x="586" y="162"/>
      <point x="631" y="162" type="curve" smooth="yes"/>
    </contour>
    <contour>
      <point x="751" y="234"/>
      <point x="785" y="290"/>
      <point x="785" y="340" type="curve" smooth="yes"/>
      <point x="785" y="405"/>
      <point x="728" y="445"/>
      <point x="663" y="445" type="curve" smooth="yes"/>
      <point x="597" y="445"/>
      <point x="531" y="405"/>
      <point x="496" y="354" type="curve"/>
      <point x="501" y="304" type="line"/>
      <point x="552" y="369"/>
      <point x="609" y="396"/>
      <point x="661" y="396" type="curve" smooth="yes"/>
      <point x="711" y="396"/>
      <point x="742" y="373"/>
      <point x="742" y="342" type="curve" smooth="yes"/>
      <point x="742" y="312"/>
      <point x="722" y="281"/>
      <point x="693" y="252" type="curve"/>
      <point x="709" y="203" type="line"/>
    </contour>
  </outline>
</glyph>
<glyph name="bn_nna" format="1">
  <advance width="576"/>
  <unicode hex="09A3"/>
  <outline>
    <contour>
      <point x="480" y="250" type="line"/>
      <point x="489" y="463"/>
      <point x="400" y="613"/>
      <point x="236" y="613" type="curve" smooth="yes"/>
      <point x="124" y="613"/>
      <point x="47" y="535"/>
      <point x="47" y="433" type="curve" smooth="yes"/>
      <point x="47" y="338"/>
      <point x="121" y="282"/>
      <point x="201" y="282" type="curve" smooth="yes"/>
      <point x="271" y="282"/>
      <point x="329" y="326"/>
      <point x="329" y="390" type="curve" smooth="yes"/>
      <point x="329" y="411"/>
      <point x="323" y="432"/>
      <point x="312" y="449" type="curve"/>
      <point x="297" y="463"/>
      <point x="267" y="475"/>
      <point x="245" y="473" type="curve"/>
      <point x="263" y="455"/>
      <point x="278" y="432"/>
      <point x="278" y="398" type="curve" smooth="yes"/>
      <point x="278" y="360"/>
      <point x="250" y="332"/>
      <point x="205" y="332" type="curve" smooth="yes"/>
      <point x="156" y="332"/>
      <point x="109" y="367"/>
      <point x="109" y="432" type="curve" smooth="yes"/>
      <point x="109" y="509"/>
      <point x="165" y="561"/>
      <point x="239" y="561" type="curve" smooth="yes"/>
      <point x="340" y="561"/>
      <point x="444" y="480"/>
      <point x="444" y="328" type="curve" smooth="yes"/>
      <point x="444" y="298"/>
      <point x="440" y="256"/>
      <point x="432" y="193" type="curve"/>
    </contour>
    <contour>
      <point x="481" y="120"/>
      <point x="482" y="213"/>
      <point x="488" y="477" type="curve" smooth="yes"/>
      <point x="488" y="497"/>
      <point x="492" y="507"/>
      <point x="509" y="516" type="curve" smooth="yes"/>
      <point x="521" y="522"/>
      <point x="542" y="528"/>
      <point x="576" y="535" type="curve"/>
      <point x="580" y="539"/>
      <point x="582" y="549"/>
      <point x="582" y="559" type="curve" smooth="yes"/>
      <point x="582" y="568"/>
      <point x="580" y="577"/>
      <point x="576" y="581" type="curve"/>
      <point x="518" y="567"/>
      <point x="487" y="554"/>
      <point x="473" y="546" type="curve" smooth="yes"/>
      <point x="454" y="534"/>
      <point x="448" y="521"/>
      <point x="448" y="491" type="curve" smooth="yes"/>
      <point x="448" y="479"/>
      <point x="449" y="449"/>
      <point x="451" y="411" type="curve"/>
      <point x="445" y="411" type="line"/>
      <point x="445" y="175"/>
      <point x="417" y="78"/>
      <point x="340" y="-56" type="curve"/>
      <point x="357" y="-65"/>
      <point x="372" y="-71"/>
      <point x="396" y="-71" type="curve"/>
    </contour>
  </outline>
</glyph>
<glyph name="bn_ta" format="1">
  <advance width="887"/>
  <unicode hex="09A4"/>
  <outline>
    <contour>
      <point x="748" y="-111"/>
      <point x="851" y="-11"/>
      <point x="851" y="150" type="curve" smooth="yes"/>
      <point x="851" y="339"/>
      <point x="716" y="478"/>
      <point x="560" y="478" type="curve" smooth="yes"/>
      <point x="455" y="478"/>
      <point x="393" y="416"/>
      <point x="393" y="335" type="curve" smooth="yes"/>
      <point x="393" y="275"/>
      <point x="429" y="211"/>
      <point x="479" y="172" type="curve"/>
      <point x="486" y="170"/>
      <point x="489" y="170"/>
      <point x="491" y="170" type="curve" smooth="yes"/>
      <point x="514" y="170"/>
      <point x="532" y="176"/>
      <point x="549" y="185" type="curve"/>
      <point x="490" y="219"/>
      <point x="455" y="279"/>
      <point x="455" y="337" type="curve" smooth="yes"/>
      <point x="455" y="394"/>
      <point x="485" y="436"/>
      <point x="561" y="436" type="curve" smooth="yes"/>
      <point x="684" y="436"/>
      <point x="794" y="332"/>
      <point x="794" y="161" type="curve" smooth="yes"/>
      <point x="794" y="16"/>
      <point x="716" y="-57"/>
      <point x="576" y="-57" type="curve" smooth="yes"/>
      <point x="364" y="-57"/>
      <point x="207" y="115"/>
      <point x="83" y="451" type="curve"/>
      <point x="66" y="443"/>
      <point x="51" y="434"/>
      <point x="37" y="423" type="curve"/>
      <point x="117" y="203"/>
      <point x="264" y="-111"/>
      <point x="574" y="-111" type="curve" smooth="yes"/>
    </contour>
    <contour>
      <point x="113" y="551"/>
      <point x="240" y="567"/>
      <point x="443" y="567" type="curve" smooth="yes"/>
      <point x="627" y="567"/>
      <point x="774" y="551"/>
      <point x="887" y="535" type="curve"/>
      <point x="891" y="541"/>
      <point x="894" y="549"/>
      <point x="894" y="557" type="curve" smooth="yes"/>
      <point x="894" y="566"/>
      <point x="891" y="576"/>
      <point x="887" y="581" type="curve"/>
      <point x="776" y="602"/>
      <point x="628" y="619"/>
      <point x="443" y="619" type="curve" smooth="yes"/>
      <point x="239" y="619"/>
      <point x="110" y="602"/>
      <point x="0" y="581" type="curve"/>
      <point x="-4" y="576"/>
      <point x="-7" y="567"/>
      <point x="-7" y="558" type="curve" smooth="yes"/>
      <point x="-7" y="549"/>
      <point x="-5" y="539"/>
      <point x="0" y="535" type="curve"/>
    </contour>
  </outline>
</glyph>
<glyph name="bn_na" format="1">
  <advance width="478"/>
  <unicode hex="09A8"/>
  <outline>
    <contour>
      <point x="194" y="183"/>
      <point x="200" y="207"/>
      <point x="203" y="225" type="curve"/>
      <point x="192" y="218"/>
      <point x="170" y="213"/>
      <point x="146" y="213" type="curve" smooth="yes"/>
      <point x="92" y="213"/>
      <point x="63" y="239"/>
      <point x="63" y="281" type="curve" smooth="yes"/>
      <point x="63" y="333"/>
      <point x="98" y="364"/>
      <point x="149" y="364" type="curve" smooth="yes"/>
      <point x="235" y="364"/>
      <point x="318" y="265"/>
      <point x="305" y="177" type="curve"/>
      <point x="331" y="248" type="line"/>
      <point x="309" y="349"/>
      <point x="235" y="416"/>
      <point x="156" y="416" type="curve" smooth="yes"/>
      <point x="80" y="416"/>
      <point x="21" y="358"/>
      <point x="21" y="277" type="curve" smooth="yes"/>
      <point x="21" y="207"/>
      <point x="70" y="160"/>
      <point x="146" y="160" type="curve" smooth="yes"/>
      <point x="168" y="160"/>
      <point x="183" y="164"/>
      <point x="189" y="169" type="curve"/>
    </contour>
    <contour>
      <point x="314" y="-25"/>
      <point x="333" y="-23"/>
      <point x="347" y="-19" type="curve"/>
      <point x="345" y="2"/>
      <point x="342" y="28"/>
      <point x="342" y="68" type="curve" smooth="yes"/>
      <point x="342" y="248"/>
      <point x="385" y="428"/>
      <point x="432" y="562" type="curve"/>
      <point x="390" y="572" type="line"/>
      <point x="347" y="442"/>
      <point x="324" y="344"/>
      <point x="305" y="177" type="curve" smooth="yes"/>
      <point x="295" y="89"/>
      <point x="288" y="22"/>
      <point x="288" y="-25" type="curve"/>
    </contour>
    <contour>
      <point x="71" y="551"/>
      <point x="168" y="562"/>
      <point x="251" y="562" type="curve" smooth="yes"/>
      <point x="330" y="562"/>
      <point x="420" y="552"/>
      <point x="478" y="535" type="curve"/>
      <point x="480" y="542"/>
      <point x="481" y="551"/>
      <point x="481" y="561" type="curve" smooth="yes"/>
      <point x="481" y="572"/>
      <point x="480" y="576"/>
      <point x="478" y="581" type="curve"/>
      <point x="398" y="602"/>
      <point x="323" y="612"/>
      <point x="248" y="612" type="curve" smooth="yes"/>
      <point x="169" y="612"/>
      <point x="85" y="601"/>
      <point x="0" y="581" type="curve"/>
      <point x="-3" y="576"/>
      <point x="-5" y="569"/>
      <point x="-5" y="561" type="curve" smooth="yes"/>
      <point x="-5" y="554"/>
      <point x="-3" y="545"/>
      <point x="0" y="535" type="curve"/>
    </contour>
  </outline>
</glyph>
<glyph name="bn_ba" format="1">
  <advance width="500"/>
  <unicode hex="09AC"/>
  <outline>
    <contour>
      <point x="399" y="-143" type="line"/>
      <point x="320" y="67"/>
      <point x="198" y="172"/>
      <point x="77" y="218" type="curve"/>
      <point x="85" y="186" type="line"/>
      <point x="152" y="283"/>
      <point x="295" y="401"/>
      <point x="375" y="441" type="curve"/>
      <point x="378" y="506" type="line"/>
      <point x="249" y="437"/>
      <point x="102" y="310"/>
      <point x="39" y="216" type="curve"/>
      <point x="42" y="195"/>
      <point x="48" y="177"/>
      <point x="69" y="156" type="curve"/>
      <point x="190" y="128"/>
      <point x="296" y="24"/>
      <point x="384" y="-177" type="curve"/>
    </contour>
    <contour>
      <point x="404" y="-176"/>
      <point x="424" y="-173"/>
      <point x="439" y="-162" type="curve"/>
      <point x="409" y="-58"/>
      <point x="393" y="164"/>
      <point x="393" y="327" type="curve" smooth="yes"/>
      <point x="393" y="415"/>
      <point x="398" y="486"/>
      <point x="409" y="577" type="curve"/>
      <point x="366" y="586" type="line"/>
      <point x="354" y="477"/>
      <point x="349" y="370"/>
      <point x="349" y="251" type="curve" smooth="yes"/>
      <point x="349" y="116"/>
      <point x="352" y="-53"/>
      <point x="384" y="-177" type="curve"/>
    </contour>
    <contour>
      <point x="66" y="551"/>
      <point x="170" y="567"/>
      <point x="262" y="567" type="curve" smooth="yes"/>
      <point x="346" y="567"/>
      <point x="437" y="551"/>
      <point x="500" y="535" type="curve"/>
      <point x="502" y="542"/>
      <point x="504" y="549"/>
      <point x="504" y="561" type="curve" smooth="yes"/>
      <point x="504" y="568"/>
      <point x="503" y="576"/>
      <point x="500" y="581" type="curve"/>
      <point x="440" y="601"/>
      <point x="348" y="618"/>
      <point x="266" y="618" type="curve" smooth="yes"/>
      <point x="173" y="618"/>
      <point x="64" y="601"/>
      <point x="0" y="581" type="curve"/>
      <point x="-3" y="576"/>
      <point x="-5" y="567"/>
      <point x="-5" y="559" type="curve" smooth="yes"/>
      <point x="-5" y="546"/>
      <point x="-3" y="542"/>
      <point x="0" y="535" type="curve"/>
    </contour>
  </outline>
</glyph>
<glyph name="bn_ra" format="1">
  <advance width="500"/>
  <unicode hex="09B0"/>
  <outline>
    <contour>
      <point x="217" y="2"/>
      <point x="200" y="22"/>
      <point x="176" y="22" type="curve" smooth="yes"/>
      <point x="156" y="22"/>
      <point x="140" y="6"/>
      <point x="140" y="-14" type="curve" smooth="yes"/>
      <point x="140" y="-37"/>
      <point x="156" y="-57"/>
      <point x="181" y="-57" type="curve" smooth="yes"/>
      <point x="202" y="-57"/>
      <point x="217" y="-42"/>
      <point x="217" y="-22" type="curve" smooth="yes"/>
    </contour>
    <component base="bn_ba"/>
  </outline>
</glyph>
<glyph name="bn_la" format="1">
  <advance width="557"/>
  <unicode hex="09B2"/>
  <outline>
    <contour>
      <point x="188" y="156"/>
      <point x="198" y="181"/>
      <point x="201" y="200" type="curve"/>
      <point x="187" y="198"/>
      <point x="174" y="197"/>
      <point x="163" y="197" type="curve" smooth="yes"/>
      <point x="104" y="197"/>
      <point x="64" y="228"/>
      <point x="64" y="282" type="curve" smooth="yes"/>
      <point x="64" y="343"/>
      <point x="99" y="381"/>
      <point x="148" y="381" type="curve" smooth="yes"/>
      <point x="194" y="381"/>
      <point x="232" y="346"/>
      <point x="253" y="292" type="curve"/>
      <point x="293" y="329" type="line"/>
      <point x="262" y="398"/>
      <point x="217" y="436"/>
      <point x="159" y="436" type="curve" smooth="yes"/>
      <point x="84" y="436"/>
      <point x="22" y="372"/>
      <point x="22" y="284" type="curve" smooth="yes"/>
      <point x="22" y="197"/>
      <point x="90" y="137"/>
      <point x="176" y="140" type="curve"/>
    </contour>
    <contour>
      <point x="280" y="278"/>
      <point x="299" y="286"/>
      <point x="313" y="296" type="curve"/>
      <point x="278" y="378" type="line"/>
      <point x="230" y="348" type="line"/>
      <point x="260" y="273" type="line"/>
    </contour>
    <contour>
      <point x="429" y="398"/>
      <point x="395" y="436"/>
      <point x="350" y="436" type="curve" smooth="yes"/>
      <point x="310" y="436"/>
      <point x="273" y="407"/>
      <point x="261" y="351" type="curve"/>
      <point x="307" y="310" type="line"/>
      <point x="301" y="324"/>
      <point x="299" y="330"/>
      <point x="299" y="336" type="curve" smooth="yes"/>
      <point x="299" y="365"/>
      <point x="323" y="384"/>
      <point x="354" y="384" type="curve" smooth="yes"/>
      <point x="388" y="384"/>
      <point x="412" y="361"/>
      <point x="412" y="327" type="curve" smooth="yes"/>
      <point x="412" y="323"/>
      <point x="412" y="319"/>
      <point x="411" y="315" type="curve"/>
      <point x="429" y="358" type="line"/>
    </contour>
    <contour>
      <point x="396" y="-16"/>
      <point x="416" y="-13"/>
      <point x="431" y="-7" type="curve"/>
      <point x="430" y="3"/>
      <point x="430" y="15"/>
      <point x="430" y="27" type="curve" smooth="yes"/>
      <point x="430" y="84"/>
      <point x="437" y="163"/>
      <point x="452" y="270" type="curve" smooth="yes"/>
      <point x="467" y="377"/>
      <point x="485" y="475"/>
      <point x="507" y="562" type="curve"/>
      <point x="467" y="572" type="line"/>
      <point x="436" y="455"/>
      <point x="413" y="344"/>
      <point x="393" y="197" type="curve" smooth="yes"/>
      <point x="379" y="101"/>
      <point x="372" y="31"/>
      <point x="372" y="-16" type="curve"/>
    </contour>
    <contour>
      <point x="102" y="555"/>
      <point x="189" y="564"/>
      <point x="275" y="564" type="curve" smooth="yes"/>
      <point x="366" y="564"/>
      <point x="458" y="554"/>
      <point x="557" y="535" type="curve"/>
      <point x="559" y="541"/>
      <point x="560" y="551"/>
      <point x="560" y="562" type="curve" smooth="yes"/>
      <point x="560" y="572"/>
      <point x="559" y="576"/>
      <point x="557" y="581" type="curve"/>
      <point x="480" y="601"/>
      <point x="374" y="614"/>
      <point x="275" y="614" type="curve" smooth="yes"/>
      <point x="183" y="614"/>
      <point x="90" y="603"/>
      <point x="0" y="581" type="curve"/>
      <point x="-3" y="576"/>
      <point x="-5" y="569"/>
      <point x="-5" y="561" type="curve" smooth="yes"/>
      <point x="-5" y="554"/>
      <point x="-3" y="545"/>
      <point x="0" y="535" type="curve"/>
    </contour>
  </outline>
</glyph>
<glyph name="bn_sha" format="1">
  <advance width="511"/>
  <unicode hex="09B6"/>
  <outline>
    <contour>
      <point x="437" y="169"/>
      <point x="439" y="276"/>
      <point x="442" y="482" type="curve" smooth="yes"/>
      <point x="442" y="501"/>
      <point x="446" y="509"/>
      <point x="462" y="518" type="curve" smooth="yes"/>
      <point x="471" y="523"/>
      <point x="486" y="529"/>
      <point x="510" y="535" type="curve"/>
      <point x="513" y="539"/>
      <point x="515" y="549"/>
      <point x="515" y="559" type="curve" smooth="yes"/>
      <point x="515" y="568"/>
      <point x="513" y="577"/>
      <point x="510" y="581" type="curve"/>
      <point x="474" y="572"/>
      <point x="447" y="563"/>
      <point x="429" y="551" type="curve" smooth="yes"/>
      <point x="409" y="538"/>
      <point x="401" y="520"/>
      <point x="401" y="507" type="curve" smooth="yes"/>
      <point x="401" y="435" type="line"/>
      <point x="394" y="416" type="line"/>
      <point x="394" y="216"/>
      <point x="376" y="117"/>
      <point x="335" y="-7" type="curve"/>
      <point x="349" y="-13"/>
      <point x="372" y="-16"/>
      <point x="396" y="-16" type="curve"/>
    </contour>
    <contour>
      <point x="169" y="289"/>
      <point x="200" y="367"/>
      <point x="200" y="437" type="curve" smooth="yes"/>
      <point x="200" y="467"/>
      <point x="194" y="495"/>
      <point x="185" y="517" type="curve"/>
      <point x="155" y="504" type="line"/>
      <point x="162" y="487"/>
      <point x="165" y="463"/>
      <point x="165" y="441" type="curve" smooth="yes"/>
      <point x="165" y="379"/>
      <point x="143" y="331"/>
      <point x="109" y="331" type="curve" smooth="yes"/>
      <point x="91" y="331"/>
      <point x="78" y="341"/>
      <point x="78" y="371" type="curve" smooth="yes"/>
      <point x="78" y="424"/>
      <point x="118" y="493"/>
      <point x="177" y="491" type="curve"/>
      <point x="184" y="509" type="line"/>
      <point x="161" y="525" type="line"/>
      <point x="76" y="509"/>
      <point x="36" y="432"/>
      <point x="36" y="368" type="curve" smooth="yes"/>
      <point x="36" y="311"/>
      <point x="69" y="289"/>
      <point x="105" y="289" type="curve" smooth="yes"/>
    </contour>
    <contour>
      <point x="196" y="532"/>
      <point x="163" y="596"/>
      <point x="92" y="596" type="curve" smooth="yes"/>
      <point x="70" y="596"/>
      <point x="29" y="589"/>
      <point x="0" y="581" type="curve"/>
      <point x="-3" y="576"/>
      <point x="-5" y="569"/>
      <point x="-5" y="560" type="curve" smooth="yes"/>
      <point x="-5" y="552"/>
      <point x="-3" y="543"/>
      <point x="0" y="535" type="curve"/>
      <point x="21" y="541"/>
      <point x="68" y="549"/>
      <point x="90" y="549" type="curve" smooth="yes"/>
      <point x="147" y="549"/>
      <point x="169" y="506"/>
      <point x="169" y="456" type="curve"/>
      <point x="196" y="437" type="line"/>
    </contour>
    <contour>
      <point x="302" y="292"/>
      <point x="327" y="327"/>
      <point x="327" y="379" type="curve" smooth="yes"/>
      <point x="327" y="454"/>
      <point x="275" y="517"/>
      <point x="216" y="527" type="curve"/>
      <point x="185" y="498" type="line"/>
      <point x="241" y="498"/>
      <point x="289" y="447"/>
      <point x="289" y="381" type="curve" smooth="yes"/>
      <point x="289" y="350"/>
      <point x="280" y="335"/>
      <point x="260" y="335" type="curve" smooth="yes"/>
      <point x="226" y="335"/>
      <point x="207" y="381"/>
      <point x="207" y="434" type="curve" smooth="yes"/>
      <point x="207" y="464"/>
      <point x="214" y="492"/>
      <point x="225" y="513" type="curve"/>
      <point x="190" y="533" type="line"/>
      <point x="176" y="506"/>
      <point x="167" y="470"/>
      <point x="167" y="429" type="curve" smooth="yes"/>
      <point x="167" y="350"/>
      <point x="199" y="292"/>
      <point x="257" y="292" type="curve" smooth="yes"/>
    </contour>
    <contour>
      <point x="416" y="473"/>
      <point x="369" y="609"/>
      <point x="279" y="609" type="curve" smooth="yes"/>
      <point x="226" y="609"/>
      <point x="190" y="561"/>
      <point x="178" y="497" type="curve"/>
      <point x="216" y="498" type="line"/>
      <point x="228" y="532"/>
      <point x="251" y="555"/>
      <point x="281" y="555" type="curve" smooth="yes"/>
      <point x="337" y="555"/>
      <point x="394" y="477"/>
      <point x="394" y="339" type="curve"/>
      <point x="418" y="311" type="line"/>
    </contour>
  </outline>
</glyph>
<glyph name="bn_ekaar" format="1">
  <advance width="244"/>
  <unicode hex="09C7"/>
  <outline>
    <contour>
      <point x="230" y="-90"/>
      <point x="264" y="-66"/>
      <point x="285" y="-28" type="curve"/>
      <point x="285" y="-10"/>
      <point x="270" y="14"/>
      <point x="251" y="25" type="curve"/>
      <point x="221" y="-27"/>
      <point x="204" y="-46"/>
      <point x="186" y="-46" type="curve" smooth="yes"/>
      <point x="147" y="-46"/>
      <point x="126" y="47"/>
      <point x="126" y="224" type="curve" smooth="yes"/>
      <point x="126" y="434"/>
      <point x="156" y="513"/>
      <point x="244" y="535" type="curve"/>
      <point x="246" y="542"/>
      <point x="247" y="551"/>
      <point x="247" y="559" type="curve" smooth="yes"/>
      <point x="247" y="568"/>
      <point x="246" y="576"/>
      <point x="244" y="581" type="curve"/>
      <point x="180" y="566"/>
      <point x="144" y="544"/>
      <point x="131" y="514" type="curve"/>
      <point x="119" y="512" type="line"/>
      <point x="90" y="463"/>
      <point x="70" y="341"/>
      <point x="70" y="215" type="curve" smooth="yes"/>
      <point x="70" y="28"/>
      <point x="120" y="-90"/>
      <point x="196" y="-90" type="curve" smooth="yes"/>
    </contour>
    <contour>
      <point x="160" y="501" type="line"/>
      <point x="142" y="532"/>
      <point x="76" y="565"/>
      <point x="0" y="581" type="curve"/>
      <point x="-2" y="576"/>
      <point x="-3" y="568"/>
      <point x="-3" y="559" type="curve" smooth="yes"/>
      <point x="-3" y="551"/>
      <point x="-2" y="543"/>
      <point x="0" y="535" type="curve"/>
      <point x="88" y="510"/>
      <point x="125" y="484"/>
      <point x="125" y="448" type="curve"/>
    </contour>
  </outline>
</glyph>
<glyph name="bn_aikaar" format="1">
  <advance width="247"/>
  <unicode hex="09C8"/>
  <outline>
    <contour>
      <point x="244" y="581" type="line"/>
      <point x="236" y="657"/>
      <point x="205" y="723"/>
      <point x="135" y="723" type="curve" smooth="yes"/>
      <point x="101" y="723"/>
      <point x="60" y="707"/>
      <point x="29" y="707" type="curve" smooth="yes"/>
      <point x="-11" y="707"/>
      <point x="-32" y="739"/>
      <point x="-53" y="774" type="curve"/>
      <point x="-64" y="770"/>
      <point x="-81" y="761"/>
      <point x="-91" y="750" type="curve"/>
      <point x="-62" y="698"/>
      <point x="-30" y="662"/>
      <point x="26" y="662" type="curve" smooth="yes"/>
      <point x="66" y="662"/>
      <point x="100" y="677"/>
      <point x="137" y="677" type="curve" smooth="yes"/>
      <point x="189" y="677"/>
      <point x="203" y="622"/>
      <point x="210" y="563" type="curve"/>
    </contour>
    <component base="bn_ekaar"/>
  </outline>
</glyph>
<glyph name="bn_one" format="1">
  <advance width="550"/>
  <unicode hex="09E7"/>
  <outline>
    <contour>
      <point x="393" y="-18"/>
      <point x="469" y="76"/>
      <point x="469" y="191" type="curve" smooth="yes"/>
      <point x="469" y="420"/>
      <point x="171" y="408"/>
      <point x="143" y="583" type="curve"/>
      <point x="125" y="575"/>
      <point x="110" y="562"/>
      <point x="96" y="546" type="curve"/>
      <point x="123" y="382"/>
      <point x="425" y="384"/>
      <point x="425" y="188" type="curve" smooth="yes"/>
      <point x="425" y="102"/>
      <point x="367" y="32"/>
      <point x="287" y="32" type="curve" smooth="yes"/>
      <point x="226" y="32"/>
      <point x="188" y="72"/>
      <point x="188" y="125" type="curve" smooth="yes"/>
      <point x="188" y="171"/>
      <point x="217" y="207"/>
      <point x="258" y="207" type="curve" smooth="yes"/>
      <point x="292" y="207"/>
      <point x="315" y="182"/>
      <point x="328" y="134" type="curve"/>
      <point x="343" y="142"/>
      <point x="358" y="157"/>
      <point x="365" y="171" type="curve"/>
      <point x="344" y="221"/>
      <point x="307" y="253"/>
      <point x="258" y="253" type="curve" smooth="yes"/>
      <point x="189" y="253"/>
      <point x="144" y="190"/>
      <point x="144" y="120" type="curve" smooth="yes"/>
      <point x="144" y="46"/>
      <point x="195" y="-18"/>
      <point x="285" y="-18" type="curve" smooth="yes"/>
    </contour>
  </outline>
</glyph>
<glyph name="bn_ba.001" format="1">
  <advance width="457"/>
  <outline>
    <contour>
      <point x="352" y="13" type="line"/>
      <point x="288" y="163"/>
      <point x="182" y="242"/>
      <point x="74" y="279" type="curve"/>
      <point x="80" y="252" type="line"/>
      <point x="144" y="330"/>
      <point x="276" y="421"/>
      <point x="350" y="451" type="curve"/>
      <point x="354" y="512" type="line"/>
      <point x="233" y="459"/>
      <point x="97" y="361"/>
      <point x="36" y="285" type="curve"/>
      <point x="38" y="265"/>
      <point x="43" y="247"/>
      <point x="63" y="227" type="curve"/>
      <point x="172" y="203"/>
      <point x="264" y="128"/>
      <point x="337" y="-16" type="curve"/>
    </contour>
    <contour>
      <point x="357" y="-16"/>
      <point x="377" y="-13"/>
      <point x="391" y="-4" type="curve"/>
      <point x="368" y="77"/>
      <point x="364" y="209"/>
      <point x="364" y="291" type="curve" smooth="yes"/>
      <point x="364" y="401"/>
      <point x="370" y="468"/>
      <point x="387" y="562" type="curve"/>
      <point x="346" y="572" type="line"/>
      <point x="326" y="453"/>
      <point x="317" y="341"/>
      <point x="317" y="199" type="curve" smooth="yes"/>
      <point x="317" y="72"/>
      <point x="327" y="22"/>
      <point x="337" y="-16" type="curve"/>
    </contour>
    <contour>
      <point x="60" y="548"/>
      <point x="155" y="561"/>
      <point x="239" y="561" type="curve" smooth="yes"/>
      <point x="316" y="561"/>
      <point x="399" y="548"/>
      <point x="457" y="535" type="curve"/>
      <point x="459" y="541"/>
      <point x="461" y="550"/>
      <point x="461" y="561" type="curve" smooth="yes"/>
      <point x="461" y="568"/>
      <point x="460" y="576"/>
      <point x="457" y="581" type="curve"/>
      <point x="402" y="597"/>
      <point x="318" y="611"/>
      <point x="243" y="611" type="curve" smooth="yes"/>
      <point x="158" y="611"/>
      <point x="59" y="597"/>
      <point x="0" y="581" type="curve"/>
      <point x="-3" y="576"/>
      <point x="-5" y="568"/>
      <point x="-5" y="560" type="curve" smooth="yes"/>
      <point x="-5" y="549"/>
      <point x="-3" y="541"/>
      <point x="0" y="535" type="curve"/>
    </contour>
  </outline>
</glyph>
<glyph name="bn_ekaar.init" format="1">
  <advance width="277"/>
  <outline>
    <contour>
      <point x="216" y="-63"/>
      <point x="250" y="-39"/>
      <point x="271" y="-1" type="curve"/>
      <point x="271" y="17"/>
      <point x="256" y="41"/>
      <point x="237" y="52" type="curve"/>
      <point x="208" y="1"/>
      <point x="190" y="-19"/>
      <point x="173" y="-19" type="curve" smooth="yes"/>
      <point x="136" y="-19"/>
      <point x="112" y="72"/>
      <point x="112" y="213" type="curve" smooth="yes"/>
      <point x="112" y="409"/>
      <point x="163" y="508"/>
      <point x="277" y="535" type="curve"/>
      <point x="279" y="542"/>
      <point x="280" y="551"/>
      <point x="280" y="559" type="curve" smooth="yes"/>
      <point x="280" y="568"/>
      <point x="279" y="576"/>
      <point x="277" y="581" type="curve"/>
      <point x="128" y="551"/>
      <point x="55" y="430"/>
      <point x="55" y="216" type="curve" smooth="yes"/>
      <point x="55" y="51"/>
      <point x="107" y="-63"/>
      <point x="182" y="-63" type="curve" smooth="yes"/>
    </contour>
  </outline>
</glyph>
<glyph name="bn_iikaar.fl.b" format="1">
  <advance width="224"/>
  <outline>
    <contour>
      <point x="152" y="724"/>
      <point x="21" y="874"/>
      <point x="-204" y="874" type="curve" smooth="yes"/>
      <point x="-305" y="874"/>
      <point x="-377" y="836"/>
      <point x="-377" y="770" type="curve" smooth="yes"/>
      <point x="-377" y="737"/>
      <point x="-357" y="711"/>
      <point x="-321" y="696" type="curve"/>
      <point x="-280" y="712" type="line"/>
      <point x="-309" y="721"/>
      <point x="-330" y="738"/>
      <point x="-330" y="762" type="curve" smooth="yes"/>
      <point x="-330" y="799"/>
      <point x="-288" y="822"/>
      <point x="-202" y="822" type="curve" smooth="yes"/>
      <point x="24" y="822"/>
      <point x="94" y="707"/>
      <point x="94" y="537" type="curve"/>
      <point x="149" y="494" type="line"/>
    </contour>
    <contour>
      <point x="127" y="106"/>
      <point x="151" y="302"/>
      <point x="148" y="509" type="curve"/>
      <point x="129" y="498" type="line"/>
      <point x="100" y="494" type="line"/>
      <point x="103" y="263"/>
      <point x="79" y="102"/>
      <point x="49" y="-37" type="curve"/>
      <point x="62" y="-45"/>
      <point x="90" y="-51"/>
      <point x="112" y="-51" type="curve"/>
    </contour>
    <contour>
      <point x="120" y="445" type="line"/>
      <point x="121" y="465" type="line"/>
      <point x="121" y="550"/>
      <point x="78" y="585"/>
      <point x="32" y="585" type="curve" smooth="yes"/>
      <point x="24" y="585"/>
      <point x="12" y="584"/>
      <point x="0" y="581" type="curve"/>
      <point x="-3" y="576"/>
      <point x="-4" y="567"/>
      <point x="-4" y="559" type="curve" smooth="yes"/>
      <point x="-4" y="549"/>
      <point x="-2" y="540"/>
      <point x="0" y="535" type="curve"/>
      <point x="13" y="538"/>
      <point x="29" y="540"/>
      <point x="37" y="540" type="curve" smooth="yes"/>
      <point x="72" y="540"/>
      <point x="100" y="501"/>
      <point x="100" y="443" type="curve"/>
    </contour>
    <contour>
      <point x="150" y="502"/>
      <point x="176" y="521"/>
      <point x="224" y="535" type="curve"/>
      <point x="228" y="548"/>
      <point x="229" y="571"/>
      <point x="224" y="581" type="curve"/>
      <point x="167" y="566"/>
      <point x="116" y="540"/>
      <point x="105" y="506" type="curve"/>
      <point x="141" y="481" type="line"/>
    </contour>
  </outline>
</glyph>
<glyph name="bn_ikaar.fl.b" format="1">
  <advance width="224"/>
  <outline>
    <contour>
      <point x="139" y="-50"/>
      <point x="169" y="-46"/>
      <point x="183" y="-41" type="curve"/>
      <point x="157" y="105"/>
      <point x="145" y="270"/>
      <point x="146" y="503" type="curve"/>
      <point x="140" y="525" type="line"/>
      <point x="119" y="566"/>
      <point x="93" y="611"/>
      <point x="93" y="671" type="curve" smooth="yes"/>
      <point x="93" y="752"/>
      <point x="142" y="796"/>
      <point x="304" y="796" type="curve" smooth="yes"/>
      <point x="396" y="796"/>
      <point x="498" y="782"/>
      <point x="616" y="756" type="curve"/>
      <point x="621" y="769"/>
      <point x="624" y="784"/>
      <point x="626" y="802" type="curve"/>
      <point x="517" y="826"/>
      <point x="387" y="848"/>
      <point x="288" y="848" type="curve" smooth="yes"/>
      <point x="119" y="848"/>
      <point x="38" y="784"/>
      <point x="38" y="686" type="curve" smooth="yes"/>
      <point x="38" y="629"/>
      <point x="65" y="578"/>
      <point x="101" y="529" type="curve"/>
      <point x="98" y="497" type="line"/>
      <point x="98" y="295"/>
      <point x="107" y="111"/>
      <point x="117" y="-50" type="curve"/>
    </contour>
    <contour>
      <point x="120" y="470" type="line"/>
      <point x="120" y="541"/>
      <point x="61" y="585"/>
      <point x="28" y="585" type="curve" smooth="yes"/>
      <point x="18" y="585"/>
      <point x="4" y="582"/>
      <point x="0" y="581" type="curve"/>
      <point x="-3" y="576"/>
      <point x="-4" y="567"/>
      <point x="-4" y="559" type="curve" smooth="yes"/>
      <point x="-4" y="549"/>
      <point x="-2" y="540"/>
      <point x="0" y="535" type="curve"/>
      <point x="13" y="538"/>
      <point x="21" y="539"/>
      <point x="30" y="539" type="curve" smooth="yes"/>
      <point x="63" y="539"/>
      <point x="99" y="502"/>
      <point x="99" y="444" type="curve"/>
    </contour>
    <contour>
      <point x="150" y="502"/>
      <point x="176" y="521"/>
      <point x="224" y="535" type="curve"/>
      <point x="228" y="548"/>
      <point x="229" y="571"/>
      <point x="224" y="581" type="curve"/>
      <point x="167" y="566"/>
      <point x="116" y="540"/>
      <point x="105" y="506" type="curve"/>
      <point x="141" y="481" type="line"/>
    </contour>
  </outline>
</glyph>
<glyph name="bn_ikaar.fl" format="1">
  <advance width="224"/>
  <outline>
    <contour>
      <point x="139" y="-50"/>
      <point x="169" y="-46"/>
      <point x="183" y="-41" type="curve"/>
      <point x="157" y="105"/>
      <point x="145" y="270"/>
      <point x="146" y="503" type="curve"/>
      <point x="140" y="525" type="line"/>
      <point x="119" y="566"/>
      <point x="93" y="611"/>
      <point x="93" y="671" type="curve" smooth="yes"/>
      <point x="93" y="752"/>
      <point x="142" y="796"/>
      <point x="304" y="796" type="curve" smooth="yes"/>
      <point x="396" y="796"/>
      <point x="498" y="782"/>
      <point x="616" y="756" type="curve"/>
      <point x="621" y="769"/>
      <point x="624" y="784"/>
      <point x="626" y="802" type="curve"/>
      <point x="517" y="826"/>
      <point x="387" y="848"/>
      <point x="288" y="848" type="curve" smooth="yes"/>
      <point x="119" y="848"/>
      <point x="38" y="784"/>
      <point x="38" y="686" type="curve" smooth="yes"/>
      <point x="38" y="621"/>
      <point x="73" y="564"/>
      <point x="116" y="509" type="curve"/>
      <point x="115" y="498" type="line"/>
      <point x="98" y="497" type="line"/>
      <point x="98" y="295"/>
      <point x="107" y="111"/>
      <point x="117" y="-50" type="curve"/>
    </contour>
    <contour>
      <point x="144" y="497" type="line"/>
      <point x="119" y="541"/>
      <point x="57" y="567"/>
      <point x="0" y="581" type="curve"/>
      <point x="-4" y="571"/>
      <point x="-5" y="550"/>
      <point x="0" y="535" type="curve"/>
      <point x="60" y="521"/>
      <point x="99" y="497"/>
      <point x="99" y="459" type="curve"/>
    </contour>
    <contour>
      <point x="150" y="502"/>
      <point x="176" y="521"/>
      <point x="224" y="535" type="curve"/>
      <point x="228" y="548"/>
      <point x="229" y="571"/>
      <point x="224" y="581" type="curve"/>
      <point x="167" y="566"/>
      <point x="116" y="540"/>
      <point x="105" y="506" type="curve"/>
      <point x="141" y="481" type="line"/>
    </contour>
  </outline>
</glyph>
<glyph name="bn_m_la" format="1">
  <advance width="546"/>
  <outline>
    <contour>
      <point x="453" y="315"/>
      <point x="515" y="370"/>
      <point x="515" y="449" type="curve" smooth="yes"/>
      <point x="515" y="514"/>
      <point x="473" y="561"/>
      <point x="403" y="584" type="curve"/>
      <point x="345" y="564" type="line"/>
      <point x="415" y="564"/>
      <point x="467" y="526"/>
      <point x="467" y="458" type="curve" smooth="yes"/>
      <point x="467" y="399"/>
      <point x="428" y="362"/>
      <point x="358" y="362" type="curve" smooth="yes"/>
      <point x="285" y="362"/>
      <point x="235" y="403"/>
      <point x="215" y="440" type="curve"/>
      <point x="204" y="400" type="line"/>
      <point x="226" y="357"/>
      <point x="295" y="315"/>
      <point x="369" y="315" type="curve" smooth="yes"/>
    </contour>
    <contour>
      <point x="205" y="-30"/>
      <point x="212" y="-6"/>
      <point x="212" y="13" type="curve"/>
      <point x="198" y="11"/>
      <point x="186" y="10"/>
      <point x="175" y="10" type="curve" smooth="yes"/>
      <point x="113" y="10"/>
      <point x="68" y="46"/>
      <point x="68" y="108" type="curve" smooth="yes"/>
      <point x="68" y="156"/>
      <point x="94" y="187"/>
      <point x="135" y="187" type="curve" smooth="yes"/>
      <point x="178" y="187"/>
      <point x="218" y="152"/>
      <point x="246" y="98" type="curve"/>
      <point x="280" y="134" type="line"/>
      <point x="242" y="203"/>
      <point x="193" y="242"/>
      <point x="137" y="242" type="curve" smooth="yes"/>
      <point x="73" y="242"/>
      <point x="27" y="191"/>
      <point x="27" y="117" type="curve" smooth="yes"/>
      <point x="27" y="20"/>
      <point x="105" y="-49"/>
      <point x="195" y="-46" type="curve"/>
    </contour>
    <contour>
      <point x="275" y="85"/>
      <point x="292" y="93"/>
      <point x="304" y="102" type="curve"/>
      <point x="259" y="182" type="line"/>
      <point x="216" y="152" type="line"/>
      <point x="256" y="80" type="line"/>
    </contour>
    <contour>
      <point x="410" y="117" type="line"/>
      <point x="403" y="186"/>
      <point x="364" y="242"/>
      <point x="317" y="242" type="curve" smooth="yes"/>
      <point x="282" y="242"/>
      <point x="250" y="212"/>
      <point x="246" y="155" type="curve"/>
      <point x="248" y="120" type="line"/>
      <point x="296" y="115" type="line"/>
      <point x="286" y="132"/>
      <point x="284" y="137"/>
      <point x="284" y="146" type="curve" smooth="yes"/>
      <point x="284" y="172"/>
      <point x="300" y="191"/>
      <point x="322" y="191" type="curve" smooth="yes"/>
      <point x="363" y="191"/>
      <point x="397" y="122"/>
      <point x="416" y="-46" type="curve"/>
    </contour>
    <contour>
      <point x="190" y="316"/>
      <point x="237" y="369"/>
      <point x="242" y="433" type="curve"/>
      <point x="200" y="456" type="line"/>
      <point x="197" y="395"/>
      <point x="169" y="363"/>
      <point x="127" y="363" type="curve" smooth="yes"/>
      <point x="92" y="363"/>
      <point x="71" y="385"/>
      <point x="71" y="416" type="curve" smooth="yes"/>
      <point x="71" y="444"/>
      <point x="89" y="471"/>
      <point x="124" y="471" type="curve" smooth="yes"/>
      <point x="155" y="471"/>
      <point x="184" y="449"/>
      <point x="202" y="411" type="curve"/>
      <point x="209" y="450" type="line"/>
      <point x="190" y="488"/>
      <point x="159" y="511"/>
      <point x="120" y="511" type="curve" smooth="yes"/>
      <point x="72" y="511"/>
      <point x="31" y="476"/>
      <point x="31" y="417" type="curve" smooth="yes"/>
      <point x="31" y="356"/>
      <point x="74" y="316"/>
      <point x="128" y="316" type="curve" smooth="yes"/>
    </contour>
    <contour>
      <point x="436" y="-46"/>
      <point x="454" y="-44"/>
      <point x="469" y="-37" type="curve"/>
      <point x="455" y="35"/>
      <point x="454" y="202"/>
      <point x="454" y="245" type="curve" smooth="yes"/>
      <point x="454" y="288"/>
      <point x="455" y="340"/>
      <point x="458" y="362" type="curve"/>
      <point x="414" y="341" type="line"/>
      <point x="410" y="295"/>
      <point x="406" y="241"/>
      <point x="406" y="157" type="curve" smooth="yes"/>
      <point x="406" y="47"/>
      <point x="413" y="-21"/>
      <point x="416" y="-46" type="curve"/>
    </contour>
    <contour>
      <point x="241" y="409"/>
      <point x="244" y="432"/>
      <point x="244" y="452" type="curve" smooth="yes"/>
      <point x="244" y="510"/>
      <point x="217" y="550"/>
      <point x="185" y="580" type="curve"/>
      <point x="133" y="565" type="line"/>
      <point x="175" y="546"/>
      <point x="202" y="512"/>
      <point x="202" y="473" type="curve" smooth="yes"/>
      <point x="202" y="456"/>
      <point x="197" y="448"/>
      <point x="193" y="442" type="curve"/>
      <point x="236" y="399" type="line"/>
    </contour>
    <contour>
      <point x="80" y="551"/>
      <point x="159" y="566"/>
      <point x="271" y="566" type="curve" smooth="yes"/>
      <point x="382" y="566"/>
      <point x="467" y="551"/>
      <point x="546" y="535" type="curve"/>
      <point x="548" y="541"/>
      <point x="549" y="552"/>
      <point x="549" y="562" type="curve" smooth="yes"/>
      <point x="549" y="569"/>
      <point x="549" y="576"/>
      <point x="546" y="581" type="curve"/>
      <point x="477" y="600"/>
      <point x="384" y="616"/>
      <point x="271" y="616" type="curve" smooth="yes"/>
      <point x="157" y="616"/>
      <point x="78" y="600"/>
      <point x="0" y="581" type="curve"/>
      <point x="-3" y="576"/>
      <point x="-5" y="569"/>
      <point x="-5" y="561" type="curve" smooth="yes"/>
      <point x="-5" y="552"/>
      <point x="-3" y="543"/>
      <point x="0" y="535" type="curve"/>
    </contour>
  </outline>
</glyph>
<glyph name="bn_m_pa" format="1">
  <advance width="908"/>
  <outline>
    <contour>
      <point x="822" y="-16"/>
      <point x="841" y="-13"/>
      <point x="854" y="-7" type="curve"/>
      <point x="841" y="38"/>
      <point x="832" y="147"/>
      <point x="832" y="255" type="curve" smooth="yes"/>
      <point x="832" y="332"/>
      <point x="835" y="408"/>
      <point x="842" y="466" type="curve" smooth="yes"/>
      <point x="845" y="495"/>
      <point x="850" y="511"/>
      <point x="866" y="520" type="curve" smooth="yes"/>
      <point x="875" y="525"/>
      <point x="893" y="531"/>
      <point x="908" y="535" type="curve"/>
      <point x="911" y="539"/>
      <point x="913" y="549"/>
      <point x="913" y="559" type="curve" smooth="yes"/>
      <point x="913" y="568"/>
      <point x="911" y="577"/>
      <point x="908" y="581" type="curve"/>
      <point x="865" y="571"/>
      <point x="845" y="561"/>
      <point x="834" y="554" type="curve" smooth="yes"/>
      <point x="813" y="540"/>
      <point x="808" y="527"/>
      <point x="803" y="499" type="curve" smooth="yes"/>
      <point x="785" y="400"/>
      <point x="783" y="259"/>
      <point x="783" y="178" type="curve" smooth="yes"/>
      <point x="783" y="102"/>
      <point x="788" y="29"/>
      <point x="796" y="-16" type="curve"/>
    </contour>
    <contour>
      <point x="632" y="293"/>
      <point x="727" y="389"/>
      <point x="780" y="458" type="curve"/>
      <point x="748" y="493" type="line"/>
      <point x="688" y="416"/>
      <point x="579" y="319"/>
      <point x="508" y="271" type="curve"/>
      <point x="518" y="254"/>
      <point x="532" y="240"/>
      <point x="548" y="229" type="curve"/>
    </contour>
    <contour>
      <point x="825" y="461"/>
      <point x="755" y="613"/>
      <point x="612" y="613" type="curve" smooth="yes"/>
      <point x="517" y="613"/>
      <point x="440" y="546"/>
      <point x="395" y="475" type="curve"/>
      <point x="399" y="453"/>
      <point x="406" y="433"/>
      <point x="416" y="413" type="curve"/>
      <point x="468" y="398"/>
      <point x="545" y="369"/>
      <point x="545" y="322" type="curve" smooth="yes"/>
      <point x="545" y="304"/>
      <point x="535" y="289"/>
      <point x="521" y="280" type="curve"/>
      <point x="553" y="295" type="line"/>
      <point x="567" y="304"/>
      <point x="577" y="325"/>
      <point x="577" y="344" type="curve" smooth="yes"/>
      <point x="577" y="398"/>
      <point x="495" y="441"/>
      <point x="432" y="465" type="curve"/>
      <point x="444" y="446" type="line"/>
      <point x="496" y="516"/>
      <point x="550" y="561"/>
      <point x="618" y="561" type="curve" smooth="yes"/>
      <point x="708" y="561"/>
      <point x="787" y="481"/>
      <point x="787" y="338" type="curve"/>
      <point x="818" y="268" type="line"/>
    </contour>
    <contour>
      <point x="393" y="307"/>
      <point x="444" y="358"/>
      <point x="444" y="436" type="curve"/>
      <point x="434" y="496" type="line"/>
      <point x="425" y="532"/>
      <point x="409" y="561"/>
      <point x="382" y="586" type="curve"/>
      <point x="332" y="599"/>
      <point x="269" y="609"/>
      <point x="210" y="609" type="curve" smooth="yes"/>
      <point x="139" y="609"/>
      <point x="54" y="597"/>
      <point x="0" y="581" type="curve"/>
      <point x="-3" y="576"/>
      <point x="-5" y="569"/>
      <point x="-5" y="561" type="curve" smooth="yes"/>
      <point x="-5" y="552"/>
      <point x="-3" y="543"/>
      <point x="0" y="535" type="curve"/>
      <point x="55" y="548"/>
      <point x="136" y="559"/>
      <point x="211" y="559" type="curve" smooth="yes"/>
      <point x="253" y="559"/>
      <point x="301" y="554"/>
      <point x="331" y="549" type="curve" smooth="yes"/>
      <point x="364" y="541"/>
      <point x="394" y="531"/>
      <point x="394" y="459" type="curve" smooth="yes"/>
      <point x="394" y="396"/>
      <point x="362" y="356"/>
      <point x="312" y="356" type="curve" smooth="yes"/>
      <point x="254" y="356"/>
      <point x="216" y="402"/>
      <point x="200" y="440" type="curve"/>
      <point x="189" y="404" type="line"/>
      <point x="208" y="357"/>
      <point x="262" y="307"/>
      <point x="328" y="307" type="curve" smooth="yes"/>
    </contour>
    <contour>
      <point x="226" y="409"/>
      <point x="229" y="432"/>
      <point x="229" y="452" type="curve" smooth="yes"/>
      <point x="229" y="510"/>
      <point x="202" y="550"/>
      <point x="170" y="580" type="curve"/>
      <point x="118" y="565" type="line"/>
      <point x="160" y="546"/>
      <point x="187" y="512"/>
      <point x="187" y="472" type="curve" smooth="yes"/>
      <point x="187" y="456"/>
      <point x="182" y="448"/>
      <point x="178" y="442" type="curve"/>
      <point x="221" y="399" type="line"/>
    </contour>
    <contour>
      <point x="178" y="316"/>
      <point x="222" y="369"/>
      <point x="227" y="433" type="curve"/>
      <point x="185" y="456" type="line"/>
      <point x="182" y="392"/>
      <point x="151" y="363"/>
      <point x="113" y="363" type="curve" smooth="yes"/>
      <point x="77" y="363"/>
      <point x="56" y="385"/>
      <point x="56" y="415" type="curve" smooth="yes"/>
      <point x="56" y="444"/>
      <point x="74" y="471"/>
      <point x="108" y="471" type="curve" smooth="yes"/>
      <point x="142" y="471"/>
      <point x="170" y="447"/>
      <point x="187" y="411" type="curve"/>
      <point x="194" y="450" type="line"/>
      <point x="175" y="488"/>
      <point x="144" y="511"/>
      <point x="105" y="511" type="curve" smooth="yes"/>
      <point x="57" y="511"/>
      <point x="16" y="476"/>
      <point x="16" y="416" type="curve" smooth="yes"/>
      <point x="16" y="354"/>
      <point x="59" y="316"/>
      <point x="114" y="316" type="curve" smooth="yes"/>
    </contour>
  </outline>
</glyph>
<glyph name="bn_nna.001" format="1">
  <advance width="441"/>
  <outline>
    <contour>
      <point x="361" y="278" type="line"/>
      <point x="367" y="472"/>
      <point x="300" y="609"/>
      <point x="177" y="609" type="curve" smooth="yes"/>
      <point x="92" y="609"/>
      <point x="34" y="538"/>
      <point x="34" y="446" type="curve" smooth="yes"/>
      <point x="34" y="359"/>
      <point x="90" y="306"/>
      <point x="153" y="306" type="curve" smooth="yes"/>
      <point x="207" y="306"/>
      <point x="251" y="346"/>
      <point x="251" y="403" type="curve" smooth="yes"/>
      <point x="251" y="421"/>
      <point x="247" y="440"/>
      <point x="239" y="455" type="curve"/>
      <point x="226" y="463"/>
      <point x="201" y="470"/>
      <point x="181" y="470" type="curve"/>
      <point x="193" y="453"/>
      <point x="204" y="428"/>
      <point x="204" y="407" type="curve" smooth="yes"/>
      <point x="204" y="377"/>
      <point x="185" y="354"/>
      <point x="153" y="354" type="curve" smooth="yes"/>
      <point x="118" y="354"/>
      <point x="85" y="384"/>
      <point x="85" y="441" type="curve" smooth="yes"/>
      <point x="85" y="510"/>
      <point x="126" y="557"/>
      <point x="181" y="557" type="curve" smooth="yes"/>
      <point x="254" y="557"/>
      <point x="332" y="484"/>
      <point x="332" y="348" type="curve" smooth="yes"/>
      <point x="332" y="321"/>
      <point x="329" y="283"/>
      <point x="323" y="226" type="curve"/>
    </contour>
    <contour>
      <point x="369" y="156"/>
      <point x="371" y="243"/>
      <point x="376" y="482" type="curve" smooth="yes"/>
      <point x="376" y="501"/>
      <point x="379" y="510"/>
      <point x="393" y="518" type="curve" smooth="yes"/>
      <point x="402" y="523"/>
      <point x="417" y="529"/>
      <point x="441" y="535" type="curve"/>
      <point x="444" y="539"/>
      <point x="446" y="549"/>
      <point x="446" y="559" type="curve" smooth="yes"/>
      <point x="446" y="568"/>
      <point x="444" y="577"/>
      <point x="441" y="581" type="curve"/>
      <point x="398" y="571"/>
      <point x="372" y="559"/>
      <point x="360" y="551" type="curve" smooth="yes"/>
      <point x="342" y="539"/>
      <point x="337" y="525"/>
      <point x="337" y="497" type="curve" smooth="yes"/>
      <point x="337" y="485"/>
      <point x="338" y="459"/>
      <point x="339" y="425" type="curve"/>
      <point x="333" y="426" type="line"/>
      <point x="333" y="212"/>
      <point x="312" y="121"/>
      <point x="256" y="-1" type="curve"/>
      <point x="271" y="-10"/>
      <point x="288" y="-16"/>
      <point x="309" y="-16" type="curve"/>
    </contour>
  </outline>
</glyph>
<glyph name="bn_nya.001" format="1">
  <advance width="797"/>
  <outline>
    <contour>
      <point x="739" y="320"/>
      <point x="759" y="366"/>
      <point x="759" y="415" type="curve" smooth="yes"/>
      <point x="759" y="483"/>
      <point x="706" y="520"/>
      <point x="646" y="520" type="curve" smooth="yes"/>
      <point x="570" y="520"/>
      <point x="500" y="463"/>
      <point x="471" y="399" type="curve"/>
      <point x="485" y="350" type="line"/>
      <point x="530" y="434"/>
      <point x="592" y="471"/>
      <point x="650" y="471" type="curve" smooth="yes"/>
      <point x="691" y="471"/>
      <point x="716" y="451"/>
      <point x="716" y="420" type="curve" smooth="yes"/>
      <point x="716" y="388"/>
      <point x="703" y="361"/>
      <point x="683" y="332" type="curve"/>
      <point x="707" y="287" type="line"/>
    </contour>
    <contour>
      <point x="720" y="113"/>
      <point x="765" y="155"/>
      <point x="765" y="220" type="curve" smooth="yes"/>
      <point x="765" y="264"/>
      <point x="746" y="300"/>
      <point x="713" y="334" type="curve"/>
      <point x="692" y="301" type="line"/>
      <point x="710" y="279"/>
      <point x="722" y="252"/>
      <point x="722" y="225" type="curve" smooth="yes"/>
      <point x="722" y="193"/>
      <point x="700" y="163"/>
      <point x="651" y="163" type="curve" smooth="yes"/>
      <point x="595" y="163"/>
      <point x="528" y="204"/>
      <point x="485" y="282" type="curve"/>
      <point x="471" y="247" type="line"/>
      <point x="496" y="183"/>
      <point x="574" y="113"/>
      <point x="656" y="113" type="curve" smooth="yes"/>
    </contour>
    <contour>
      <point x="667" y="232"/>
      <point x="704" y="268"/>
      <point x="727" y="318" type="curve"/>
      <point x="690" y="344" type="line"/>
      <point x="664" y="295"/>
      <point x="642" y="276"/>
      <point x="618" y="276" type="curve" smooth="yes"/>
      <point x="596" y="276"/>
      <point x="581" y="291"/>
      <point x="581" y="313" type="curve" smooth="yes"/>
      <point x="581" y="337"/>
      <point x="601" y="354"/>
      <point x="627" y="354" type="curve" smooth="yes"/>
      <point x="654" y="354"/>
      <point x="682" y="335"/>
      <point x="697" y="306" type="curve"/>
      <point x="709" y="346" type="line"/>
      <point x="691" y="373"/>
      <point x="659" y="391"/>
      <point x="627" y="391" type="curve" smooth="yes"/>
      <point x="578" y="391"/>
      <point x="547" y="356"/>
      <point x="547" y="314" type="curve" smooth="yes"/>
      <point x="547" y="265"/>
      <point x="580" y="232"/>
      <point x="624" y="232" type="curve" smooth="yes"/>
    </contour>
    <component base="bn_e"/>
  </outline>
</glyph>
<glyph name="bn_s_ta_ukaar" format="1">
  <advance width="656"/>
  <outline>
    <contour>
      <point x="558" y="-120"/>
      <point x="614" y="-51"/>
      <point x="614" y="20" type="curve" smooth="yes"/>
      <point x="614" y="82"/>
      <point x="571" y="132"/>
      <point x="522" y="157" type="curve"/>
      <point x="508" y="120" type="line"/>
      <point x="544" y="102"/>
      <point x="569" y="70"/>
      <point x="569" y="28" type="curve" smooth="yes"/>
      <point x="569" y="-22"/>
      <point x="535" y="-69"/>
      <point x="451" y="-69" type="curve" smooth="yes"/>
      <point x="300" y="-69"/>
      <point x="154" y="53"/>
      <point x="49" y="342" type="curve"/>
      <point x="34" y="338"/>
      <point x="21" y="331"/>
      <point x="10" y="322" type="curve"/>
      <point x="84" y="107"/>
      <point x="227" y="-120"/>
      <point x="446" y="-120" type="curve" smooth="yes"/>
    </contour>
    <contour>
      <point x="483" y="35"/>
      <point x="521" y="62"/>
      <point x="546" y="105" type="curve"/>
      <point x="515" y="139" type="line"/>
      <point x="492" y="100"/>
      <point x="467" y="79"/>
      <point x="437" y="79" type="curve" smooth="yes"/>
      <point x="413" y="79"/>
      <point x="396" y="96"/>
      <point x="396" y="118" type="curve" smooth="yes"/>
      <point x="396" y="141"/>
      <point x="412" y="160"/>
      <point x="441" y="160" type="curve" smooth="yes"/>
      <point x="468" y="160"/>
      <point x="495" y="144"/>
      <point x="518" y="120" type="curve"/>
      <point x="537" y="152" type="line"/>
      <point x="509" y="181"/>
      <point x="475" y="199"/>
      <point x="440" y="199" type="curve" smooth="yes"/>
      <point x="391" y="199"/>
      <point x="359" y="161"/>
      <point x="359" y="117" type="curve" smooth="yes"/>
      <point x="359" y="69"/>
      <point x="400" y="35"/>
      <point x="444" y="35" type="curve" smooth="yes"/>
    </contour>
    <contour>
      <point x="537" y="321"/>
      <point x="594" y="372"/>
      <point x="594" y="448" type="curve" smooth="yes"/>
      <point x="594" y="517"/>
      <point x="547" y="562"/>
      <point x="480" y="584" type="curve"/>
      <point x="423" y="564" type="line"/>
      <point x="490" y="561"/>
      <point x="547" y="528"/>
      <point x="547" y="457" type="curve" smooth="yes"/>
      <point x="547" y="401"/>
      <point x="512" y="367"/>
      <point x="460" y="367" type="curve" smooth="yes"/>
      <point x="380" y="367"/>
      <point x="324" y="447"/>
      <point x="322" y="576" type="curve"/>
      <point x="284" y="570" type="line"/>
      <point x="286" y="404"/>
      <point x="371" y="321"/>
      <point x="464" y="321" type="curve" smooth="yes"/>
    </contour>
    <contour>
      <point x="80" y="551"/>
      <point x="201" y="566"/>
      <point x="313" y="566" type="curve" smooth="yes"/>
      <point x="425" y="566"/>
      <point x="577" y="551"/>
      <point x="656" y="535" type="curve"/>
      <point x="658" y="541"/>
      <point x="661" y="550"/>
      <point x="661" y="561" type="curve" smooth="yes"/>
      <point x="661" y="570"/>
      <point x="659" y="576"/>
      <point x="656" y="581" type="curve"/>
      <point x="587" y="600"/>
      <point x="431" y="616"/>
      <point x="318" y="616" type="curve" smooth="yes"/>
      <point x="204" y="616"/>
      <point x="78" y="600"/>
      <point x="0" y="581" type="curve"/>
      <point x="-3" y="576"/>
      <point x="-5" y="568"/>
      <point x="-5" y="560" type="curve" smooth="yes"/>
      <point x="-5" y="551"/>
      <point x="-3" y="542"/>
      <point x="0" y="535" type="curve"/>
    </contour>
    <contour>
      <point x="251" y="329"/>
      <point x="309" y="400"/>
      <point x="312" y="570" type="curve"/>
      <point x="272" y="576" type="line"/>
      <point x="269" y="437"/>
      <point x="237" y="375"/>
      <point x="174" y="375" type="curve" smooth="yes"/>
      <point x="152" y="375"/>
      <point x="125" y="383"/>
      <point x="108" y="399" type="curve"/>
      <point x="123" y="345" type="line"/>
      <point x="139" y="336"/>
      <point x="159" y="329"/>
      <point x="181" y="329" type="curve" smooth="yes"/>
    </contour>
    <contour>
      <point x="578" y="146"/>
      <point x="602" y="191"/>
      <point x="602" y="235" type="curve" smooth="yes"/>
      <point x="602" y="306"/>
      <point x="535" y="357"/>
      <point x="447" y="357" type="curve" smooth="yes"/>
      <point x="340" y="357"/>
      <point x="249" y="287"/>
      <point x="251" y="182" type="curve"/>
      <point x="263" y="169"/>
      <point x="290" y="160"/>
      <point x="307" y="160" type="curve"/>
      <point x="305" y="166"/>
      <point x="302" y="178"/>
      <point x="302" y="192" type="curve" smooth="yes"/>
      <point x="302" y="258"/>
      <point x="369" y="320"/>
      <point x="461" y="320" type="curve" smooth="yes"/>
      <point x="519" y="320"/>
      <point x="557" y="291"/>
      <point x="557" y="240" type="curve" smooth="yes"/>
      <point x="557" y="197"/>
      <point x="537" y="170"/>
      <point x="509" y="133" type="curve"/>
      <point x="548" y="107" type="line"/>
    </contour>
  </outline>
</glyph>
<glyph name="bn_sh_ra" format="1">
  <advance width="636"/>
  <outline>
    <contour>
      <point x="460" y="-37"/>
      <point x="478" y="-32"/>
      <point x="498" y="-14" type="curve"/>
      <point x="483" y="36"/>
      <point x="473" y="155"/>
      <point x="473" y="277" type="curve" smooth="yes"/>
      <point x="473" y="349"/>
      <point x="476" y="410"/>
      <point x="483" y="466" type="curve" smooth="yes"/>
      <point x="486" y="495"/>
      <point x="491" y="511"/>
      <point x="507" y="520" type="curve" smooth="yes"/>
      <point x="516" y="525"/>
      <point x="534" y="531"/>
      <point x="549" y="535" type="curve"/>
      <point x="552" y="539"/>
      <point x="554" y="549"/>
      <point x="554" y="559" type="curve" smooth="yes"/>
      <point x="554" y="568"/>
      <point x="552" y="577"/>
      <point x="549" y="581" type="curve"/>
      <point x="510" y="572"/>
      <point x="487" y="562"/>
      <point x="475" y="554" type="curve" smooth="yes"/>
      <point x="454" y="541"/>
      <point x="448" y="523"/>
      <point x="444" y="499" type="curve" smooth="yes"/>
      <point x="441" y="477"/>
      <point x="439" y="454"/>
      <point x="438" y="429" type="curve"/>
      <point x="429" y="368" type="line"/>
      <point x="426" y="315"/>
      <point x="424" y="259"/>
      <point x="424" y="208" type="curve" smooth="yes"/>
      <point x="424" y="101"/>
      <point x="432" y="36"/>
      <point x="443" y="-16" type="curve"/>
      <point x="455" y="-8" type="line"/>
      <point x="426" y="45"/>
      <point x="388" y="71"/>
      <point x="326" y="71" type="curve" smooth="yes"/>
      <point x="257" y="71"/>
      <point x="197" y="44"/>
      <point x="142" y="44" type="curve" smooth="yes"/>
      <point x="101" y="44"/>
      <point x="70" y="65"/>
      <point x="70" y="116" type="curve" smooth="yes"/>
      <point x="70" y="146"/>
      <point x="82" y="180"/>
      <point x="95" y="203" type="curve"/>
      <point x="85" y="212"/>
      <point x="73" y="218"/>
      <point x="55" y="219" type="curve"/>
      <point x="39" y="187"/>
      <point x="23" y="150"/>
      <point x="23" y="112" type="curve" smooth="yes"/>
      <point x="23" y="45"/>
      <point x="63" y="-5"/>
      <point x="136" y="-5" type="curve" smooth="yes"/>
      <point x="199" y="-5"/>
      <point x="268" y="22"/>
      <point x="330" y="22" type="curve" smooth="yes"/>
      <point x="396" y="22"/>
      <point x="418" y="-13"/>
      <point x="441" y="-37" type="curve"/>
    </contour>
    <contour>
      <point x="203" y="291"/>
      <point x="234" y="369"/>
      <point x="234" y="439" type="curve" smooth="yes"/>
      <point x="234" y="469"/>
      <point x="228" y="497"/>
      <point x="219" y="519" type="curve"/>
      <point x="189" y="506" type="line"/>
      <point x="196" y="489"/>
      <point x="199" y="465"/>
      <point x="199" y="443" type="curve" smooth="yes"/>
      <point x="199" y="381"/>
      <point x="177" y="333"/>
      <point x="143" y="333" type="curve" smooth="yes"/>
      <point x="125" y="333"/>
      <point x="112" y="343"/>
      <point x="112" y="373" type="curve" smooth="yes"/>
      <point x="112" y="426"/>
      <point x="152" y="495"/>
      <point x="211" y="493" type="curve"/>
      <point x="218" y="511" type="line"/>
      <point x="195" y="527" type="line"/>
      <point x="110" y="511"/>
      <point x="70" y="434"/>
      <point x="70" y="370" type="curve" smooth="yes"/>
      <point x="70" y="313"/>
      <point x="103" y="291"/>
      <point x="139" y="291" type="curve" smooth="yes"/>
    </contour>
    <contour>
      <point x="230" y="437" type="line"/>
      <point x="230" y="533"/>
      <point x="194" y="598"/>
      <point x="118" y="598" type="curve" smooth="yes"/>
      <point x="72" y="598"/>
      <point x="22" y="587"/>
      <point x="0" y="581" type="curve"/>
      <point x="-3" y="576"/>
      <point x="-5" y="569"/>
      <point x="-5" y="560" type="curve" smooth="yes"/>
      <point x="-5" y="552"/>
      <point x="-3" y="543"/>
      <point x="0" y="535" type="curve"/>
      <point x="20" y="541"/>
      <point x="63" y="550"/>
      <point x="113" y="550" type="curve" smooth="yes"/>
      <point x="176" y="550"/>
      <point x="203" y="507"/>
      <point x="203" y="456" type="curve"/>
    </contour>
    <contour>
      <point x="336" y="290"/>
      <point x="361" y="325"/>
      <point x="361" y="377" type="curve" smooth="yes"/>
      <point x="361" y="452"/>
      <point x="309" y="515"/>
      <point x="250" y="525" type="curve"/>
      <point x="219" y="496" type="line"/>
      <point x="276" y="496"/>
      <point x="324" y="445"/>
      <point x="324" y="379" type="curve" smooth="yes"/>
      <point x="324" y="348"/>
      <point x="314" y="333"/>
      <point x="294" y="333" type="curve" smooth="yes"/>
      <point x="260" y="333"/>
      <point x="241" y="379"/>
      <point x="241" y="432" type="curve" smooth="yes"/>
      <point x="241" y="462"/>
      <point x="248" y="490"/>
      <point x="259" y="511" type="curve"/>
      <point x="224" y="531" type="line"/>
      <point x="210" y="504"/>
      <point x="201" y="468"/>
      <point x="201" y="427" type="curve" smooth="yes"/>
      <point x="201" y="348"/>
      <point x="233" y="290"/>
      <point x="291" y="290" type="curve" smooth="yes"/>
    </contour>
    <contour>
      <point x="452" y="473"/>
      <point x="403" y="609"/>
      <point x="313" y="609" type="curve" smooth="yes"/>
      <point x="260" y="609"/>
      <point x="224" y="561"/>
      <point x="212" y="497" type="curve"/>
      <point x="250" y="498" type="line"/>
      <point x="262" y="532"/>
      <point x="285" y="555"/>
      <point x="315" y="555" type="curve" smooth="yes"/>
      <point x="371" y="555"/>
      <point x="428" y="477"/>
      <point x="428" y="339" type="curve"/>
      <point x="454" y="311" type="line"/>
    </contour>
  </outline>
</glyph>
<glyph name="bn_ssa.001" format="1">
  <advance width="482"/>
  <outline>
    <contour>
      <point x="376" y="13" type="line"/>
      <point x="314" y="156"/>
      <point x="212" y="230"/>
      <point x="107" y="264" type="curve"/>
      <point x="105" y="237" type="line"/>
      <point x="254" y="397" type="line"/>
      <point x="199" y="415" type="line"/>
      <point x="60" y="268" type="line"/>
      <point x="63" y="249"/>
      <point x="71" y="231"/>
      <point x="96" y="213" type="curve"/>
      <point x="202" y="189"/>
      <point x="290" y="120"/>
      <point x="361" y="-16" type="curve"/>
    </contour>
    <contour>
      <point x="366" y="362" type="line"/>
      <point x="270" y="409" type="line" smooth="yes"/>
      <point x="163" y="462"/>
      <point x="94" y="513"/>
      <point x="91" y="558" type="curve"/>
      <point x="25" y="563" type="line"/>
      <point x="25" y="508"/>
      <point x="102" y="448"/>
      <point x="184" y="408" type="curve" smooth="yes"/>
      <point x="356" y="323" type="line"/>
    </contour>
    <contour>
      <point x="380" y="-16"/>
      <point x="399" y="-14"/>
      <point x="413" y="-6" type="curve"/>
      <point x="391" y="76"/>
      <point x="389" y="208"/>
      <point x="389" y="291" type="curve" smooth="yes"/>
      <point x="389" y="401"/>
      <point x="395" y="468"/>
      <point x="411" y="562" type="curve"/>
      <point x="362" y="572" type="line"/>
      <point x="347" y="453"/>
      <point x="340" y="347"/>
      <point x="340" y="205" type="curve" smooth="yes"/>
      <point x="340" y="78"/>
      <point x="351" y="22"/>
      <point x="361" y="-16" type="curve"/>
    </contour>
    <contour>
      <point x="63" y="549"/>
      <point x="148" y="562"/>
      <point x="249" y="562" type="curve" smooth="yes"/>
      <point x="343" y="562"/>
      <point x="430" y="549"/>
      <point x="482" y="535" type="curve"/>
      <point x="485" y="546"/>
      <point x="488" y="569"/>
      <point x="482" y="581" type="curve"/>
      <point x="433" y="598"/>
      <point x="343" y="612"/>
      <point x="252" y="612" type="curve" smooth="yes"/>
      <point x="150" y="612"/>
      <point x="62" y="598"/>
      <point x="0" y="581" type="curve"/>
      <point x="-7" y="570"/>
      <point x="-5" y="549"/>
      <point x="0" y="535" type="curve"/>
    </contour>
  </outline>
</glyph>
